<?xml version="1.0" encoding="utf-8"?>
<!-- Generator: Adobe Illustrator 20.1.0, SVG Export Plug-In . SVG Version: 6.00 Build 0)  -->
<svg version="1.1" id="Layer_1" xmlns="http://www.w3.org/2000/svg" xmlns:xlink="http://www.w3.org/1999/xlink" x="0px" y="0px"
	 viewBox="0 0 1064.3 281.7" style="enable-background:new 0 0 1064.3 281.7;" xml:space="preserve">
<style type="text/css">
	.st0{fill:#231F20;}
	.st1{fill:#F58122;stroke:#000000;stroke-width:2;stroke-miterlimit:10;}
</style>
<g>
	<path class="st0" d="M350.7,93.7c1.6-0.7,3.2-1.5,4.8-2.1c1.4-0.5,2.9-1.1,4.4-1.4c2.8-0.5,5.6-0.8,8.5-1.6c-0.8,0-1.6-0.1-2.4-0.1
		c0-0.1-0.1-0.1-0.1-0.2c0.6-0.3,1.2-0.7,1.8-0.7c2.5-0.1,5-0.2,7.4-0.1c3.4,0.2,6.8,0.6,10.1,0.9c0-0.2,0.1-0.4,0.1-0.6l-4.1-0.5
		c0-0.1,0-0.3,0.1-0.4c2.7,0.4,5.8,0,8.2,1.2c3.6,1.8,7.5,1.8,10.9,3.7c0.1-0.2,0.2-0.3,0.3-0.5c-0.4-0.2-0.8-0.6-1.2-0.7
		c-2.1-0.7-4.3-1.3-6.4-1.9c0-0.1,0.1-0.3,0.1-0.4c3.4,0.9,6.9,1.8,10.3,2.7c0,0.2,0,0.4-0.1,0.6c-0.6,0.1-1.2,0.2-1.7,0.3
		c3.7,2.1,7.5,4,11,6.4c3.5,2.4,6.8,5.2,10.3,8V92h33.8v110.1c0.7,0,1.3,0.1,1.9,0.1c5.5,0,11,0,16.6,0c1.1,0,1.5,0.3,1.5,1.5
		c-0.1,8.4-0.1,16.8,0,25.2c0,1.2-0.4,1.5-1.5,1.5c-16.9,0-33.8,0-50.7,0c-0.4,0-0.9-0.1-1.4-0.1v-14.6c-0.6,0.5-1,0.8-1.3,1.1
		c-8.6,8.2-18.7,13.5-30.4,15.8c-7.5,1.5-15.1,1.4-22.6,0.4c-1.4-0.2-2.8-0.7-3.5,1.2c-0.1,0.4-0.9,0.7-1.4,0.7
		c-1.7,0-3.5-0.2-5.3-0.3c-0.5-2.6,1.9-1.8,3.1-2.7c-2.2-0.6-4.2-1.2-6.3-1.8c-0.5,1.3-1.6,1.2-2.7,1c-0.8-0.1-1.5-0.3-2.3-0.5
		c-2.3-0.6-2.4-0.8-1.8-3.2c-1.9-0.8-3.6-2.1-5.9-2.2c-1.5-0.1-3-1.2-4.6-2c0.2-0.6,0.4-1,0.5-1.3c-3.8-3.3-7.5-6.6-11.3-10
		c-0.1,0.6-0.2,1.2-0.4,2.1c-2-0.6-4-1.2-6.1-1.9c-0.2,0-0.4-0.3-0.4-0.4c0.5-1.6-0.9-1.8-1.7-2.3c-1.7-1.1-3.4-2.1-5.1-3.1
		c-1.6-1-1.9-1.8-1.2-3c2.6,1,5.2,1.9,7.7,3.1c1.1,0.5,1.8,1.8,2.8,2.6c0.9,0.7,1.9,1.3,2.9,1.9c0.1-0.1,0.2-0.3,0.4-0.4
		c-1.8-2.5-3.7-4.9-5.4-7.2c-0.8,0-1.4,0-2-0.1c-1.5-0.5-2.9-1.1-4.4-1.6c-1.1-0.3-1.5-1-1.2-2c0.3-1.1-0.2-1.8-1.1-2.4
		c-2.4-1.7-4.8-3.5-7.3-5.3c0.5-0.6,0.9-1,1.4-1.6c2.9,1.4,5.8,2.7,8.5,4.3c1.1,0.6,1.7,2,2.7,3c-1-2.1-1.8-4.3-3-6.3
		c-0.4-0.7-1.5-0.9-2.2-1.3c-1.2-0.7-2.5-1.3-3.9-2.1c1.4-1.5,0.4-2.4-0.8-3.4c-1.8-1.4-3.4-2.9-5.1-4.3c1.4-1.2,2.7-1.6,4.4-0.5
		c1.6,1,3.3,1.8,4.9,2.6c-0.2-0.9-0.4-1.9-0.7-2.9c-0.2-0.6-0.7-1.2-1.2-1.4c-1.4-0.7-2.9-1.3-4.5-2c1.1-1.2,0.6-2.1-0.4-2.9
		c-1.5-1.2-3.1-2.4-4.6-3.6c0,0,0-0.1,0.1-0.1c1.6-1.6,3.3-2.1,5.4-0.6c1.1,0.8,2.5,1.2,3.8,1.8c0.3-2.7,0.3-2.8-1.9-3.7
		c-0.8-0.4-1.7-0.8-2.5-1.2c0.3-0.5,1-1,0.9-1.4c-0.1-0.5-0.7-1-1.2-1.4c-1.4-1.3-2.8-2.5-4.2-3.8c1-1,1.9-2,2.9-3
		c1.9,1.3,3.7,2.6,5.5,4c1.2-3.2,0.6-4-4-5.9c0.6-0.5,1-1.1,1.6-1.5c0.8-0.6,0.7-1.1,0.1-1.8c-1.5-1.5-2.9-3.1-4.3-4.6
		c1.1-1.1,2.3-2.1,3.5-3.2c1.3,1,2.9,2.1,4.7,3.4c0.3-1.3,0.9-2.6,0.6-3.5c-0.3-0.9-1.7-1.4-2.6-2.1c1.7-2.2,1.7-2.2-0.1-4.3
		c-0.7-0.9-1.4-1.7-2.1-2.6c2.4-3.1,4.9-2,7.2,0c1.6-2.1,1.6-2.3-1.1-4.2c0.4-0.2,0.8-0.4,1-0.6c0.7-0.6,0.6-1.1-0.1-1.7
		c-0.6-0.5-1-1-1.6-1.5c-0.5-0.5-1-0.9-1.5-1.2c2.6-3.7,5-1.1,7.5,0c0.5-0.8,0.9-1.5,1.4-2.4c-0.8-0.5-1.6-0.9-2.3-1.2
		c0.5-0.5,1.2-1,1.3-1.5c0-0.6-0.5-1.3-0.9-1.9c-0.4-0.7-0.8-1.3-1.2-2.1c1.2-1,2.4-1.9,3.7-3c1.3,1,2.5,2,3.8,3.1
		c0.8-1,1.5-1.8,2.3-2.9c-0.9-0.8-1.8-1.5-2.7-2.3c2.6-1.4,2.6-1.4,1.1-5.6c1.1-0.7,2.3-1.4,3.5-2c0.3-0.2,0.9-0.1,1.2,0.1
		c1.1,0.6,2,1.3,3.1,2c-0.3,0.6-0.5,1.1-0.8,1.6c0.1,0,0.1,0.1,0.2,0.1c1.3-1.2,2.7-2.3,3.9-3.4c-1.1-0.7-2.2-1.3-3.4-2
		c0.9-0.5,1.6-0.8,2.2-1.2c0-0.1,0-0.2-0.1-0.2h-1.8c0.7-1,4-0.3,1.6-2.9c1.4-0.6,2.6-1.3,3.8-1.7c0.3-0.1,0.8,0.1,1.2,0.3
		c1.3,0.5,2.6,1,3.9,1.5c-1,0.5-2.5,0.8-2.9,2.6c0.4-0.1,0.5-0.1,0.6-0.1c3.1-1.7,6.2-3.5,9.3-5.2C350.4,93.9,350.6,93.8,350.7,93.7
		L350.7,93.7z M422.4,163.5c-1.2,0.4-2.4,0.7-3.5,1.1c-2.7,0.9-3,0.8-5-1.5c0.6-0.1,1.3-0.2,1.8-0.4c0.4-0.2,0.9-0.6,1-1
		c0.2-1.3,0.8-2.1,2.1-2.4c0.7-0.2,1.4-0.5,2.1-0.7c3.5-1.3,3.5-1.3,2.8-4.9c0-0.1-0.1-0.1-0.2-0.2c-1.9,0.8-2,1-0.9,2.2
		c-5.4,1.9-6.2,1.8-8.2-0.4c0.8-0.4,2.1-0.6,2.4-1.3c1-2,2.7-2.9,4.5-3.8c1.7-0.9,1.8-1.2,0.7-2.9c-1.3,0.4-2.6,0.8-3.9,1.2
		c-0.4,0.1-0.9,0.1-1.2,0c-1.1-0.8-2.1-1.6-3.2-2.5c-0.1-0.1-0.2-0.3-0.3-0.4c2.5,0.6,2.4-1.1,2.9-2.4c0.3-0.8,1-1.4,1.6-2.1
		c0.3-0.4,0.9-0.6,1.4-0.9c-0.5-0.9-1-1.6-1.5-2.4c-0.6,0.3-1.2,0.6-1.7,0.7c-0.5,0.1-1.1,0.4-1.5,0.2c-1.4-0.8-2.7-1.7-4.1-2.7
		c1.2-0.6,2.4-0.6,2.5-2.4c0.2-2.2-0.9-3-2.5-3.8c-1-0.5-2-1.1-3.2-1.7c0.4-0.2,0.7-0.3,1-0.5c-0.4-0.3-0.7-0.5-1.1-0.8
		c-1.2-1.1-2.4-1.5-3.9-0.5c-0.3,0.2-0.8,0.2-1.2,0.1c-1.6-0.4-3.3-1-4.9-1.4c-1.6-0.4-2.1-1.7-3.3-3c0.8,0,1.2,0,1.6,0
		c0.3,0,0.7-0.1,1-0.2c-0.4-0.4-0.8-0.6-1.2-0.7c-5.6-1.5-11.3-1.8-17-1c-13.8,1.8-23.8,9.1-29.8,21.7c-4.7,9.9-5.2,20.4-2.8,31
		c2.9,12.6,10.3,21.7,22.2,27c0.6,0.2,1.3,0,1.9,0.2c1.4,0.3,3.4,0.2,4,1.1c0.9,1.3,1.9,0.9,2.8,1.3c0.1,0,0.2,0.1,0.3,0.1
		c3.7,0.7,7.3,0.7,10.9-0.4c1.9-0.6,3.7-1.5,5.6-2c2.4-0.7,4.8-1.1,7.5-1.7c-0.4,0.7-0.6,1.1-0.8,1.4c1.2-0.3,2.3-0.8,3.3-1.4
		c0.5-0.2,0.8-0.6,1.2-1c0.4-0.4,0.7-1.1,1.2-1.2c2.4-0.7,4.2-2.3,5.9-3.9c0.7-0.7,1.4-1.3,0.7-2.3c1.1-0.6,2.4-1,3-1.9
		c1.6-2.1,3.7-4,3.8-6.9c0-0.2,0.4-0.4,0.5-0.7c0.7-1.2,1.4-2.4,2.1-3.6c-0.1-0.1-0.3-0.2-0.4-0.3c-2.1,1.2-4.3,2.3-6.4,3.5
		c-0.3,0.2-0.7,0.7-0.6,1c0.4,1.6-0.6,2-1.8,2.3c-0.8,0.2-1.6,0.4-2.4,0.6c-2.7,0.7-2.7,0.7-3.9-1.6c0-0.1,0-0.2,0-0.4
		c2.7,0.1,4-2.2,6-3.4c2.8-1.7,6.1-2.6,9.2-3.8c0.2-0.1,0.4,0.1,0.8,0.2c0.5-2.3,0.9-4.4,1.3-6.6c-0.1-0.1-0.2-0.1-0.4-0.2
		c-1.1,0.7-2.3,1.5-3.4,2.1c-1.1,0.6-2,1.2-0.7,2.5c-2.1,0.8-4,1.6-6.1,2.4c-0.5-1-1-1.9-1.5-2.8c3.1-1.4,3-1.4,4.3-3.2
		c0.2-0.4,0.5-0.9,0.8-1c2.3-0.9,4.5-2.2,7.2-2.3v-5.2C423.1,161.5,421.2,161.6,422.4,163.5 M391.4,201.4c0.1,0.2,0.1,0.5,0.2,0.7
		c2.1-0.5,4.1-1,6.2-1.5c0-0.2-0.1-0.3-0.1-0.5C395.6,200.6,393.5,201,391.4,201.4"/>
	<path class="st0" d="M499.3,120.5V92h48.9v18.4c0.7-0.6,1.1-0.9,1.5-1.3c7-6.4,14.5-12.2,23.3-16c9.6-4.2,19.7-5.6,30.1-4.7
		c6,0.5,11.9,1.8,17.3,4.6c8.7,4.4,13.8,11.7,16.7,20.8c2.3,7.3,3,14.8,3,22.4c0,21.1,0,42.1,0,63.2c0,1.9,0,1.9,1.9,1.9
		c5.2,0,10.4,0,15.5,0h1.8c0,0.7,0.1,1.1,0.1,1.6c0,8.6,0,17.2,0,25.8c0,1.3-0.4,1.6-1.7,1.6c-23.3,0-46.6,0-70,0
		c-1,0-1.6,0-1.6-1.4c0.1-8.8,0-17.6,0-26.4c0-0.4,0.1-0.8,0.1-1.3h1.8c5.3,0,10.7,0,16,0c1.1,0,1.4-0.3,1.4-1.4
		c0-19,0-37.9-0.1-56.9c0-3.9-0.7-7.8-2.4-11.4c-3.5-7.2-9.7-10.2-17.3-10.6c-9.6-0.5-18,2.7-25.4,8.6c-4.1,3.3-7.8,7.3-11.5,11
		c-0.5,0.4-0.7,1.3-0.7,2c0,19.1,0,38.2,0,57.4c0,1.1,0.4,1.4,1.4,1.4c5.3,0,10.7,0,16,0h2v1.5c0,8.7,0,17.3,0,26
		c0,1.2-0.4,1.6-1.6,1.6c-23.4,0-46.7,0-70.1,0c-0.4,0-0.9,0-1.4-0.1v-28.9h19.1c0-0.7,0.1-1.2,0.1-1.7c0-25.8,0-51.6,0-77.4
		c0-1.4-0.4-1.7-1.7-1.7c-3.7,0.1-7.3,0-11,0H499.3z"/>
	<path class="st0" d="M799.6,181.2v49H674.9c0-0.5-0.1-1-0.1-1.6c0-8.7,0-17.4,0-26.1c0-0.8,0.4-1.8,1-2.4
		c25.5-26.1,51.1-52.2,76.6-78.3c0.3-0.3,0.6-0.7,1.2-1.3h-45v18.5c-0.6,0-1.1,0.1-1.6,0.1c-8.8,0-17.7,0-26.5,0
		c-1.3,0-1.6-0.4-1.6-1.7c0-14.7,0-29.4,0-44.1c0-1.2,0.3-1.6,1.5-1.6c38.2,0,76.4,0,114.6,0c0.4,0,0.8,0,1.4,0.1v1.7
		c0,8.3,0,16.6,0,24.9c0,1.4-0.5,2.4-1.4,3.3c-18.4,18.8-36.8,37.7-55.2,56.6c-7,7.1-13.9,14.3-20.9,21.4c-0.3,0.3-0.6,0.7-1.1,1.2
		h52.4v-19.9H799.6z"/>
	<path class="st1" d="M142.8,151.6c0,8.8,0,17.5,0,26.3c0,3.7,0,7.4,0.4,11.1c0.3,3,1.1,6,1.8,8.9c0.8,2.9,3.3,3.8,5.8,4.5
		c5,1.4,10.1,0.8,15.1,0.9c0.3,0,0.7-0.2,1-0.2c0.4,0.1,0.8,0.4,1,0.8c0.1,0.2,0,0.6,0,0.9c0,8,0,16,0,24.1c0,1.3-0.3,1.9-1.8,1.9
		c-9.2,0.1-18.4,0.5-27.6,0.5c-3.6,0-7.3-0.4-10.8-1.2c-3.2-0.7-6.4-1.9-9.5-3.2c-3.2-1.4-5.2-4-6.3-7.2c-1.1-3.3-2-6.7-2.8-10
		c-0.4-1.6-0.4-3.4-0.5-5.1c-1.1-27.3-0.2-54.5-0.5-81.8c0-1.4-0.4-1.8-1.8-1.8c-6.8,0.1-13.7,0-20.5,0.1c-1.3,0-1.7-0.3-1.7-1.6
		c0.1-8.5,0.1-17,0-25.5c0-1.3,0.3-1.7,1.6-1.7c6.7,0.1,13.4,0,20.1,0c2.3,0,2.3,0,2.3-2.4c0-14.8,0-29.5,0-44.3
		c0-2.1,0-2.1,2.1-2.1c10.1,0,20.2,0,30.4,0c1.9,0,1.9,0,1.9,1.9c0,15,0,29.9,0,44.9c0,1.9,0,1.9,2,1.9c7.2,0,14.4,0,21.6,0
		c1.3,0,1.8,0.3,1.8,1.7c-0.1,8.5-0.1,16.9,0,25.4c0,1.3-0.3,1.8-1.7,1.8c-7.3-0.1-14.6,0-21.9-0.1c-1.3,0-1.8,0.4-1.7,1.7
		C142.8,132.2,142.8,141.9,142.8,151.6"/>
	<path class="st1" d="M925.1,161.8c0-13,0-26,0-39c0-2.5,0-2.5-2.6-2.5c-6.6,0-13.2,0-19.8,0c-1.3,0-1.7-0.3-1.7-1.7
		c0.1-8.3,0.1-16.6,0-24.9c0-1.4,0.5-1.7,1.8-1.7c6.7,0.1,13.4,0,20.1,0c2.2,0,2.2,0,2.2-2.2c0-14.8,0-29.6,0-44.4
		c0-2.1,0-2.1,2.1-2.1c9.9,0,19.8,0,29.6,0c2.1,0,2.1,0,2.1,2.2c0,14.8,0,29.6,0,44.4c0,2.1,0,2.1,2.1,2.1c7.2,0,14.5,0,21.7,0
		c1.2,0,1.6,0.2,1.6,1.5c-0.1,8.3,0,16.5,0,24.8c0,1.9,0,1.9-2,1.9c-7.1,0-14.3,0-21.4,0c-1.9,0-2,0.1-1.9,1.9
		c0,20.8,0,41.6,0.1,62.3c0,4,0.8,8,1.4,11.9c0.7,4.1,3.8,5.8,7.5,6.4c5,0.9,9.9,1.6,15,0.5c1-0.2,1.4,0,1.4,1.2
		c0,8.1-0.1,16.1,0,24.2c0,1.2-0.5,1.5-1.5,1.6c-3.3,0.2-6.5,0.5-9.8,0.6c-6.8,0-13.7,0.1-20.5-0.2c-3.8-0.2-7.6-0.9-11.3-1.6
		c-8.8-1.7-13.2-7.6-14.7-16.1c-1.1-6.2-1.5-12.5-1.5-18.8C925.2,183.3,925.1,172.5,925.1,161.8"/>
	<path class="st0" d="M268.8,139.2v-18.7c-0.6,0-1.1-0.1-1.5-0.1c-7.2,0-14.4,0-21.6,0c-1.3,0-1.6,0.4-1.6,1.7c0,25.8,0,51.6,0,77.4
		c0,1.3,0.3,1.8,1.7,1.8c5.2-0.1,10.5,0,15.7,0h1.9c0,0.6,0.1,1,0.1,1.4c0,8.7,0,17.4,0,26.1c0,1.2-0.4,1.6-1.6,1.6
		c-23.4,0-46.7,0-70.1,0c-1.2,0-1.6-0.4-1.6-1.6c0.1-3.4,0-6.7,0-10.1c0-5.3-0.1-10.7-0.2-16c0-1.3,0.4-1.5,1.6-1.5
		c5.7,0.1,11.4,0.1,17.2,0.1c0.2,0,0.5-0.1,0.8-0.2v-80.5c-0.6,0-1.2-0.1-1.8-0.1c-5.3,0-10.7,0-16,0c-1.2,0-1.6-0.4-1.6-1.6
		c0-8.6,0-17.1,0-25.7c0-1.2,0.4-1.4,1.4-1.4c17,0,34,0,51,0c1.2,0,1.5,0.4,1.4,1.5c-0.1,4.1,0,8.2,0,12.3c0,0.5,0,1,0,1.6
		c0.1,0.1,0.2,0.1,0.4,0.2c0.3-0.4,0.6-0.7,0.9-1.1c3-4.4,5.9-8.9,8.9-13.3c0.4-0.5,1.2-1.1,1.8-1.1c12.5-0.1,24.9,0,37.4,0
		c0.2,0,0.5,0,0.9,0.1c0,0.5,0.1,1,0.1,1.4c0,6.9,0,13.8,0,20.7c0,0.9-0.3,2-0.7,2.8c-3.9,7.1-7.8,14.2-11.8,21.3
		c-0.3,0.4-0.8,1-1.2,1C276.8,139.3,272.9,139.2,268.8,139.2"/>
	<path class="st0" d="M838.1,201.3v-1.8c0-25.7,0-51.4,0-77.1c0-1.9,0-1.9-1.9-1.9c-5.6,0-11.2,0-16.9,0h-1.9V92
		c0.6,0,1.1-0.1,1.7-0.1c17.2,0,34.4,0,51.6,0c1.5,0,1.9,0.3,1.9,1.8c0,35.1,0,70.3,0,105.4c0,2.1,0,2.1,2.2,2.1c5.3,0,10.7,0,16,0
		h1.7v28.9h-75.3v-28.9H838.1z"/>
	<path class="st0" d="M872.6,32.8v1.6c0,11,0,22.1,0,33.1c0,1.4-0.3,1.8-1.7,1.8c-14.1-0.1-28.2,0-42.4,0c-0.5,0-1,0-1.5-0.1V32.8
		H872.6z"/>
	<path class="st0" d="M464.8,262.1h2.8v4.6h-11.5v-4.5c1,0,1.9-0.1,3-0.1v-12.5c-1,0-1.9-0.1-3-0.1v-4.5h8.5c0,0.8,0.1,1.7,0.1,2.6
		c6.4-5,9.7-4.8,13,0.6c0.4-0.4,0.8-0.9,1.2-1.3c2.3-2.5,5.1-3.3,8.4-2.6c2.6,0.5,4.2,2.1,4.6,4.7c0.3,1.9,0.3,3.9,0.3,5.8
		c0,2.4,0,4.9,0,7.4h2.9v4.6h-11.5v-4.5h2.9c0-3.5,0.1-6.8,0-10.1c-0.1-2-1.3-2.8-3.4-2.9c-3.1,0-4.9,1.8-4.9,4.9v8h3v4.6h-11.2
		v-4.5h2.7c0-3.7,0.1-7.2,0-10.7c0-1.3-1.2-2-2.4-2.2c-3-0.5-5.8,1.8-5.8,4.8c0,2.5,0,5,0,7.5C464.6,261.7,464.7,261.8,464.8,262.1"
		/>
	<path class="st0" d="M344.5,244.9h8.3c0.1,0.6,0.1,1.1,0.2,2c2.4-2.3,5.1-3.3,8.2-2.9c3.1,0.4,5.6,1.9,7.4,4.5
		c3.2,4.4,3,11.1-0.5,15.2c-3.6,4.2-8.4,4.7-15.2,1.5v6.7h2.8v4.6h-11.4v-4.5h2.9v-22.3h-2.8V244.9z M365.3,255.7
		c0-3.9-2.7-6.8-6.3-6.8c-3.6,0-6.3,2.9-6.3,6.8c0,3.8,2.7,6.7,6.3,6.7C362.6,262.4,365.3,259.6,365.3,255.7"/>
	<path class="st0" d="M515.3,244.9h8.3v4.5c-1,0.1-1.9,0.1-2.9,0.2V262c1,0.1,1.9,0.1,2.9,0.2v4.5h-8.3c-0.1-0.6-0.1-1.2-0.2-2.1
		c-2.6,2.2-5.5,3.1-8.7,2.6c-3.2-0.5-5.7-2.2-7.5-4.9c-3-4.7-2.2-11.6,1.8-15.4c3.9-3.8,8.8-3.9,14.3-0.2
		C515.1,246.1,515.2,245.5,515.3,244.9 M515.3,255.6c0-3.9-2.7-6.8-6.3-6.8c-3.7,0-6.3,2.9-6.3,6.8c0,3.9,2.6,6.7,6.3,6.7
		C512.6,262.4,515.3,259.6,515.3,255.6"/>
	<path class="st0" d="M652.4,262.1h2.9v4.6H644v-4.5h2.8v-12.7H644v-4.6h8.3c0.1,0.9,0.1,1.7,0.2,2.3c2-1,3.8-2.4,5.9-2.9
		c5-1.3,8.4,1.4,8.5,6.6c0.1,3.7,0,7.4,0,11.3c1.1,0,2,0.1,3,0.1v4.5h-11.4v-4.5c0.9,0,1.9-0.1,2.9-0.1c0-3.5,0.1-6.9,0-10.3
		c-0.1-1.7-1.5-2.6-3.3-2.6c-2.3,0.1-3.9,1.3-5.3,3c-0.2,0.2-0.3,0.5-0.3,0.8C652.4,255.9,652.4,258.9,652.4,262.1"/>
	<path class="st0" d="M399.5,262.2v4.5H388v-4.5h3c0-1.1,0-2,0-3c0-2.1,0.1-4.2,0-6.3c-0.1-3-2.1-4.5-5-3.4
		c-1.4,0.5-2.6,1.7-3.8,2.6c-0.2,0.2-0.3,0.6-0.3,0.9c0,3,0,5.9,0,9.1h2.9v4.6h-11.4v-4.5h2.9v-12.7h-2.8v-4.6h8.3
		c0,0.8,0.1,1.6,0.1,2.8c0.6-0.5,1.1-0.9,1.5-1.3c1.8-1.5,3.9-2.5,6.3-2.4c4,0,6.4,2.2,6.6,6.3c0.1,3.3,0.1,6.6,0.1,10
		c0,0.6,0,1.2,0,1.9C397.5,262.1,398.5,262.1,399.5,262.2"/>
	<path class="st0" d="M641,257h-18c0.1,2.2,1,3.8,2.9,4.8c2.8,1.5,6.5,1,8.8-1.3c0.3-0.3,0.8-0.5,1.2-0.5c1.4-0.1,2.8,0,4.3,0
		c-0.4,4.5-5.8,7.7-12,7.3c-6.9-0.5-11.3-5.7-10.8-12.6c0.4-6.8,5.9-11.3,13.1-10.8C637.1,244.4,641.4,249.7,641,257 M635.6,253.2
		c-0.7-3.2-3.2-4.9-6.7-4.7c-3,0.2-5.4,2.1-5.7,4.7H635.6z"/>
	<path class="st0" d="M425.3,257.1h-17.8c0.2,3.9,3.6,6.3,7.8,5.5c1-0.2,2.3-0.5,2.9-1.2c1.2-1.4,2.6-1.3,4.1-1.3c0.8,0,1.6,0,2.3,0
		c-0.4,4-5,7.8-12,7.3c-7-0.5-11.6-6-10.8-13c0.8-6.8,6.6-11.3,13.7-10.3C421.9,244.8,426.2,250.6,425.3,257.1 M419.9,253.2
		c-0.6-3-3.1-4.8-6.5-4.6c-3.1,0.1-5.5,2-5.8,4.6H419.9z"/>
	<path class="st0" d="M693.4,257c0.2,2.5,1.3,4.2,3.4,5c2.7,1,5.4,1,7.6-0.9c1.1-0.9,2.1-1.2,3.4-1.2c1,0.1,1.9,0,2.9,0
		c-0.9,5-6.6,8.1-12.9,7.2c-6.8-1.1-10.9-6.4-10-13.1c0.9-6.7,6.6-11,13.6-10.1c6.4,0.8,10.6,6.3,9.9,13.1H693.4z M706,253.2
		c-0.8-3.3-3.3-4.9-6.9-4.7c-3,0.2-5.3,2.2-5.5,4.7H706z"/>
	<path class="st0" d="M445,249.5h-3v-4.6h8.4v17.2h3v4.6h-8.3c0-0.8-0.1-1.7-0.1-2.8c-0.6,0.5-1.1,0.8-1.5,1.2
		c-2.3,1.8-5,2.7-7.9,2.2c-2.8-0.5-4.5-2-4.8-4.8c-0.3-2.9-0.2-5.8-0.3-8.8c0-1.3,0-2.6,0-4.1h-2.9v-4.7h8.4c0,0.5,0,1,0,1.6
		c0,4,0,7.9,0,11.9c0,3,1.9,4.5,4.7,3.5c1.5-0.5,2.7-1.7,4-2.6c0.2-0.1,0.4-0.5,0.4-0.8C445.1,255.5,445,252.6,445,249.5"/>
	<path class="st0" d="M172.6,78.6c0.2-2.2-0.9-3.3-2.3-4.1c-1.7-0.9-3.4-1.6-5.3-2.5c1.1-0.2,2.1-0.4,3.1-0.5c2.9-0.1,5.8,0,8.7-0.1
		c1.4,0,2.8-0.2,4.2-0.3c0.6,0,1.2,0.1,1.9,0.1c4,0,8.1,0.1,12.1,0c5.5-0.1,10.5,1.7,15.4,4.1c0.3,0.1,0.6,0.3,0.7,0.5
		c0.4,0.6,1,1.5,0.8,1.8c-0.4,0.6-1.2,1.1-1.9,1.1c-9.4,0-18.8-0.2-28.1-0.3C178.8,78.6,175.8,78.6,172.6,78.6"/>
	<path class="st0" d="M155.2,45c1,0,1.9,0,2.7,0c5.6,0.3,11.1,0.6,16.7,0.9c5.3,0.3,10.6,0.6,15.9,0.9c0.4,0,0.9,0.1,1.3,0.3
		c1.5,0.6,1.7,2,0.4,2.9c-1.2,0.8-2.6,1.4-3.9,1.9c-3.7,1.1-7.4,2.3-11.3,2.1c-5.3-0.3-10.6-0.7-15.9-1c-1.7-0.1-3.4-0.4-5.1-0.7
		c-0.3-0.1-0.8-0.5-0.8-0.8C155.2,49.3,155.2,47.2,155.2,45 M179.3,49.8c-2.7-0.8-5.5-0.9-8.2-0.4C173.8,50.2,176.6,50.4,179.3,49.8
		"/>
	<path class="st0" d="M609.6,245.8c0.1-0.5,0.1-0.9,0.2-1.2h4.1v7.1c-1.8,0.1-3.3,0.3-4.8-1.3c-1.9-2.1-4.6-2.5-7.2-1.4
		c-2.5,1-3.4,3.3-3.5,5.8c0,0.9,0,1.9,0.2,2.8c1.1,4.6,5.9,6.5,10,3.9c1-0.6,1.9-1.5,2.9-2.3c1,0.8,2.1,1.7,3.1,2.5
		c-1.9,3.7-7.4,6.2-12,5.4c-4.9-0.8-8.2-3.6-9.3-8.4c-1.2-5-0.1-9.5,4.1-12.9C600.9,243.3,605.6,243.2,609.6,245.8"/>
	<path class="st0" d="M572.7,245.6c0-0.3,0.1-0.7,0.1-1.1h4.1v7.1c-1.6,0.1-3.2,0.5-4.6-1.1c-1.9-2.1-4.6-2.6-7.3-1.6
		c-2.6,1-3.4,3.3-3.6,5.9c0,0.9,0,1.8,0.1,2.6c1,4.7,5.9,6.6,10.1,4c1-0.6,1.8-1.4,2.9-2.3c1,0.8,2.1,1.7,3.2,2.6
		c-2.9,4.7-9.3,6.7-14.5,4.7c-5-1.9-8-7.2-7.2-12.7c1-6.9,6.7-11.2,13.1-9.6C570.4,244.5,571.5,245.1,572.7,245.6"/>
	<path class="st0" d="M200.1,53.6c2.9-1.7,6.9-1.3,7.3-5.5c2.3,0,4.6-0.1,6.9,0c6.2,0.3,12.4,0.7,18.6,1.1c2.8,0.2,5.6,0.1,8.3,0.4
		c0.8,0.1,1.6,0.9,2.3,1.4c-0.4,0.7-0.8,1.7-1.4,1.9c-2.9,1.1-5.9,2-9,3c-2,0.6-3.9,0.3-5.9,0.1c-3.2-0.4-6.5-0.4-9.8-0.6
		c-3.3-0.3-6.6-0.7-9.9-1.1c-0.7-0.1-1.5,0-2.2,0C203.8,54,202.1,53.8,200.1,53.6 M224.5,51.6c0,0.3,0,0.5,0,0.8h7
		c0-0.2,0-0.3,0-0.5C229.2,51.8,226.8,51.7,224.5,51.6"/>
	<path class="st0" d="M225.9,79.2c-0.7-4.2-4.5-4.4-7.2-6.3c3.6,0,7.1,0,10.7,0c3.4-0.1,6.7-0.2,10.1-0.3c0.6,0,1.2,0.1,1.8,0.1
		c1.4,0,2.9,0,4.3-0.1c2.8-0.3,5.4,0.6,8,1.5c2,0.8,4,1.8,5.9,2.8c0.5,0.3,0.6,1.2,0.9,1.8c-0.7,0.3-1.4,0.9-2.1,1c-2,0.1-4,0-6,0
		c-8.3-0.1-16.7-0.3-25-0.4C226.7,79.2,226.2,79.2,225.9,79.2"/>
	<path class="st0" d="M722.9,249.4V262h2.8v4.6h-11.3v-4.5c0.9,0,1.9-0.1,2.9-0.1v-12.5c-0.9-0.1-1.9-0.1-2.9-0.2v-4.5h8.4v2.7
		c1-1.1,1.7-2.4,2.8-3.2c1.2-0.9,2.7-0.6,4,0.4c1.7,1.3,2,4.2,0.5,5.8C728.3,252.5,725.9,252.2,722.9,249.4"/>
	<path class="st0" d="M684.4,262.7v4.4c-2.3-0.1-4.6-0.2-6.8-0.4c-1.2-0.1-1.9-1-2.1-2.1c-0.2-1.1-0.3-2.1-0.3-3.2
		c0-3.9,0-7.8,0-11.8h-3.7v-4.7h3.6v-7.6h5.4v7.5h3.9v4.7h-3.9c0,1.1,0,2.1,0,3.1c0,2.5,0,5,0.1,7.5c0.1,2.3,0.4,2.6,2.9,2.7
		C683.8,262.7,684,262.7,684.4,262.7"/>
	<path class="st0" d="M529.6,249.5h-3.7v-4.6h3.6v-7.6h5.4v7.5h3.9v4.6H535c0,1.5,0,2.8,0,4.1c0,2.2,0,4.4,0.1,6.6
		c0.1,2.3,0.4,2.6,2.7,2.6c0.3,0,0.7,0,1.2,0v2.1v2.3c-2.4-0.1-4.7-0.2-6.9-0.4c-1.2-0.1-1.9-1-2.1-2.1c-0.2-1.1-0.3-2.2-0.3-3.3
		C529.6,257.3,529.6,253.5,529.6,249.5"/>
	<path class="st0" d="M427.7,67.3c0.1,0.1,0.2,0.3,0.3,0.3c2.1-0.1,4.2-0.2,6.3-0.3c0.9,0,1.9,0.1,2.8,0.2c0.4,0,0.9-0.1,1.3-0.1
		c0.3-0.1,0.6-0.3,0.8-0.3c3.3,0.8,5.9-1.7,9-1.9c1.1-0.1,2.3-0.1,3.4-0.2c1.3-0.2,2.9,1,3.8-0.9c0-0.1,0.4,0,0.6,0
		c3.5,0.2,7,0.5,10.7,0.8c-4.4,1.4-8.8,1.2-13.1,1.6c0.7,1,1.3,1.8,2.7,1.4c0.9-0.3,1.9-0.2,2.8-0.2c0.9-0.1,1.7-0.2,2.6-0.2
		c2-0.1,4-0.1,6.1-0.2c0.5,0,1.1-0.1,1.5-0.4c2.3-1.4,4.7-2,7.4-1.8c1,0.1,2.4,0.9,3-0.9c0-0.1,0.4-0.1,0.6-0.1
		c3.3,0.2,6.5,0.4,9.9,0.6c-4,1.6-8.1,1.2-12.2,1.9c1.4,1.4,3,0.9,4.6,0.8c1.6-0.1,3.3,0,4.9-0.1c1.6-0.1,3.2-0.2,4.8-0.6
		c0.7-0.3,1.4-0.6,2.1-0.9c1.8-0.6,3.5-1.2,5.5-0.8c0.7,0.2,1.9,0.5,2.3-0.8c0-0.1,0.4-0.1,0.6-0.1c2.9,0,5.7,0,8.6,0
		c0,0.2,0,0.4,0.1,0.6c-1.6,0.3-3.3,0.7-4.9,1c-1.5,0.2-3,0.2-4.5,0.3c-0.6,0.1-1.1,0.4-1.7,0.5c0,0.2,0,0.4,0.1,0.6
		c1.4,0,2.8,0.1,4.2,0.1c1.2,0,2.3-0.1,3.5-0.2c2-0.2,4-0.4,6-0.6c0.3,0,0.6-0.7,0.9-0.8c1.5-0.4,3.1-0.8,4.7-1.1c1-0.2,2.4,1,3-0.8
		c0-0.1,0.4-0.1,0.6-0.1c2.5,0.1,5.1,0.2,7.6,0.4c0,0.1,0,0.2,0.1,0.4c-1.2,0.3-2.5,0.6-3.7,0.7c-1.7,0.2-3.4,0.2-5.1,0.4
		c-0.4,0-0.7,0.5-1,0.7c0.4,0.2,0.7,0.4,1.1,0.5c0.4,0.1,0.9,0,1.3,0.3c-1.2,0.1-2.5,0.3-3.7,0.3c-4.1,0.1-8.2,0.2-12.3,0.3
		c-3.1,0.1-6.2,0.1-9.3,0.1c-1.9,0-3.8-0.1-5.6,0c-1.2,0-2.4,0.2-3.6,0.3c-2,0.1-3.9,0.2-5.9,0.2c-1.4,0-2.7-0.1-4.1-0.1
		c-2.2-0.1-4.3-0.3-6.5-0.3c-0.4,0-0.8,0.1-1.3,0.2c-0.3,0.1-0.6,0.3-1,0.3c-2,0-4-0.1-6.1-0.1c-1.9,0-3.8,0.2-5.7,0.1
		c-2.4-0.1-4.9-0.3-7.3-0.4c-0.8,0-1.5,0.2-2.3,0.2c-2.4-0.1-4.7-0.3-7.1-0.3c-2,0-3.9,0.4-5.9,0.4c-2.3,0.1-4.5,0.1-6.8-0.1
		C428.7,68.2,428.2,67.6,427.7,67.3L427.7,67.3z"/>
	<path class="st0" d="M288.7,53.6c-1.9,2.4-4.7,2.9-7.4,3.7c-2.8,0.8-5.6,0.9-8.5,0.4c-2.9-0.5-5.9-0.3-8.9-0.5
		c-2.3-0.2-4.6-0.5-6.9-0.8c-0.3,0-0.7-0.1-1-0.1c-1.9-0.1-3.8-0.2-5.7-0.7c1.1-0.5,2.2-0.9,3.3-1.5c1.3-0.7,2.6-1.4,2.6-3.2
		c0-0.2,0.7-0.6,1.1-0.6c6.1,0.3,12.3,0.6,18.4,0.9c3.3,0.2,6.6,0.4,10,0.5C287.5,51.9,287.5,51.8,288.7,53.6 M271.4,53.8
		c0,0.3,0,0.6-0.1,0.8c2.1,0.1,4.2,0.2,6.3,0.3c0-0.3,0-0.5,0-0.8C275.6,54,273.5,53.9,271.4,53.8"/>
	<path class="st0" d="M266.5,73.9c3.5,0,7.1,0,10.6,0c3.8,0,7.6,0.3,11.3-0.2c4.1-0.5,7.6,0.7,11.2,2.2c1.1,0.5,2.1,1.2,3.1,1.9
		c0.3,0.2,0.7,0.9,0.6,1.2c-0.2,0.5-0.7,0.8-1.2,1.1c-0.2,0.1-0.6,0-0.9,0c-9.1-0.1-18.3-0.2-27.4-0.3c-0.7,0-1.1-0.2-1.4-1
		c-0.5-1.1-1.4-2.1-2.3-2.8c-1-0.8-2.3-1.2-3.5-1.8C266.5,74.2,266.5,74,266.5,73.9 M292.9,77.3c0-0.2,0-0.3,0-0.5h-6
		c0,0.2,0,0.3,0,0.5H292.9z"/>
	<polygon class="st0" points="542.3,244.8 550.9,244.8 550.9,253.4 550.9,262 553.9,262 553.9,266.6 542.2,266.6 542.2,262.1 
		545.3,262.1 545.3,249.5 542.3,249.5 	"/>
	<path class="st0" d="M294.3,57.6c2.3-1.3,5.4-1.4,5.5-4.9c1.6,0,3.2-0.1,4.8,0c7.1,0.3,14.2,0.7,21.3,1c0.5,0,1,0,1.4,0.2
		c1.1,0.4,1.2,1.5,0.3,2.3c-2.4,2.1-5.3,2.9-8.3,3.3c-2.6,0.3-5.2-0.1-7.8-0.3c-1.3-0.1-2.6-0.2-3.9-0.3c-2.3-0.2-4.6-0.4-6.9-0.6
		c-1.8-0.2-3.7-0.3-5.5-0.5C295,57.8,294.7,57.7,294.3,57.6 M318.7,56.9c0-0.3,0-0.6,0.1-0.9c-1.8-0.1-3.6-0.2-5.5-0.3
		c0,0.2,0,0.5,0,0.7C315.1,56.6,316.9,56.7,318.7,56.9"/>
	<path class="st0" d="M575.3,63.7c0.6,0.2,0.9,0.4,1.2,0.4c2.2-0.2,4.5-0.4,6.7-0.7c0.9-0.1,1.7-0.7,2.6-0.9
		c1.4-0.4,2.9-0.6,4.2-1.3c2-0.9,4-0.8,6.1-0.9c0.5,0,0.9,0,1.4,0c0,0.2,0.1,0.3,0.1,0.5c-2.2,0.6-4.4,1.1-6.7,1.7
		c0,0.1,0,0.1,0,0.2c0.4,0.1,0.7,0.2,1.1,0.2c2.1-0.2,4.2-0.4,6.2-0.7c0.7-0.1,1.4-0.5,2.1-0.9c1.5-0.8,3.4-0.8,4.8-1.5
		c1.9-0.9,3.6-0.4,5.4-0.7c0.2,0,0.4,0,0.7,0.3c-2,0.5-4,1.1-5.9,1.6c0,0.1,0,0.2,0,0.3c1.3,0,2.5,0.2,3.8,0
		c2.1-0.4,4.2-0.5,6.1-1.8c1-0.7,2.6-0.4,3.5-1.1c1.8-1.3,3.7-0.6,5.5-0.9c0.1,0,0.1,0.1,0.4,0.2c-1,0.4-1.9,0.9-2.9,1.2
		c-0.9,0.3-1.9,0.4-2.8,0.9c3-0.5,6.1,0.3,8.9-1.7c0.8-0.6,1.9-0.7,3-1c2-0.5,3.9-1,5.9-1.4c0.2,0,0.4,0,0.6,0
		c0,0.1,0.1,0.3,0.1,0.4c-1.8,0.6-3.7,1.3-5.5,1.9c0,0.1,0.1,0.2,0.1,0.2c2.8-0.4,5.8,0,8.3-1.9c0.8-0.6,2-0.8,3-1.1
		c1.5-0.5,3-0.9,4.5-1.3c0.2-0.1,0.5,0,0.9,0.3c-0.7,0.4-1.4,0.8-2.1,1.1c-0.8,0.3-1.7,0.4-2.5,0.6c0.1,0.2,0.1,0.4,0.1,0.4
		c2.5-0.4,5-0.1,7.3-1.6c1-0.6,2.4-0.6,3.3-1.3c1.2-1.1,2.5-1,3.9-1.3c0.2,0,0.5,0,0.7,0c0.1,0.1,0.1,0.3,0.2,0.4l-4.1,1.8
		c0,0.1,0,0.2,0,0.3c0.9-0.1,1.8-0.1,2.7-0.2c-30.5,5.8-61.3,9.2-92.2,11.1c0-0.1-0.1-0.3-0.1-0.4c0.1-0.1,0.3-0.3,0.4-0.3
		c1.7,0.1,3.1-1,4.6-1.5c1.4-0.4,2.8-0.6,4.2-0.9c0.3-0.1,0.6-0.3,1-0.4c-0.1-0.1-0.2-0.2-0.2-0.4h7.2c0,0.1,0.1,0.2,0.1,0.3
		C580.6,62.4,578.1,63,575.3,63.7"/>
	<path class="st0" d="M309.2,74.8c2.9,0,5.8,0,8.7,0c3.8-0.1,7.6-0.1,11.3-0.4c4.3-0.3,7.9,1.3,11.4,3.4c0.5,0.3,0.7,1.2,1.1,1.8
		c-0.7,0.3-1.3,0.9-2,0.9c-8.2,0-16.3-0.1-24.5-0.2c-0.3,0-0.9-0.3-0.9-0.4c-0.1-2.5-2.3-3-3.9-4.1c-0.4-0.2-0.9-0.4-1.3-0.6
		C309.1,75.1,309.2,74.9,309.2,74.8 M332.4,77.9c0-0.2,0-0.3,0-0.5h-5.2c0,0.2,0,0.3,0,0.5H332.4z"/>
	<path class="st0" d="M753.9,27.1c2.2,0.4,4.1-0.4,5.9-1.6c0.3-0.2,0.8-0.3,1.2-0.5c-0.7-1.3-0.4-2.1,1-2.5c0.8-0.3,1.7-0.5,2.5-0.7
		c0.1,0,0.3,0.1,0.4,0.1c0.2,1.4,0.1,1.5-2.5,2.8c0.3,0.9,0.8,1.1,1.5,0.4c0.1-0.1,0.2-0.3,0.3-0.3c1.6-0.7,3.4-1.3,3.2-3.6
		c1.1-0.4,2.2-0.9,3.4-1.2c0.1,0,0.5,0.6,0.5,0.7c-0.3,0.5-0.6,1.3-1,1.4c-1.2,0.3-1.7,1-2,2.4c0.7-0.4,1.3-0.8,1.9-1.1
		c0.6-0.4,1.3-0.6,1.9-1.1c0.5-0.3,1-0.8,1.1-1.2c0.5-1.9,1.6-2.8,3.9-2.5c-0.2,0.9-0.4,1.6-1.5,2c-0.7,0.2-1.1,1.2-1.9,2
		c2.7-0.4,3.8-3.4,6.7-2.8c-0.5,0.4-0.8,0.7-1.3,1.2c2.8-0.2,4-3.2,6.8-2.9c-1.2,1.8-2.9,2.5-4.9,3.1c-3.5,1-7,2.1-10.5,3.2
		c-5.3,1.7-10.6,3.4-15.9,5.1c-5.8,1.9-11.6,3.8-17.4,5.7c-5,1.6-10.1,3.1-15.1,4.6c-0.6,0.2-1.3,0.2-2,0c1.7-0.9,3.4-1.8,5.2-2.5
		c1.5-0.6,2.2-1.8,2.4-3.2c0.2-1.1,0.9-1.3,1.6-1.6c0.7-0.2,1.4-0.4,2.1-0.6c0.2-0.1,0.5,0.1,0.7,0.2c0.1,0.1,0,0.5-0.1,0.6
		c-1,1-2.1,1.9-3.3,2.9c-0.1-0.1,0.1,0.1,0.3,0.5c-0.9,0.5-1.7,0.9-2.5,1.3c0,0.1,0.1,0.2,0.1,0.3c1-0.4,2.1-0.6,3.1-1.1
		c1.6-0.8,3.1-1.9,4.7-2.8c0.4-0.2,0.9-0.2,1.4-0.4c0.1,0.1,0.1,0.3,0.2,0.4c-0.7,0.5-1.5,1-2.2,1.4c3.2-0.5,5.6-2.9,8.5-3.9
		c0.1,0.2,0.2,0.3,0.4,0.5c-0.4,0.2-0.8,0.4-1.2,0.6c1.5,0.5,2.1-0.6,3-1.3c0.9-0.7,2-1.1,3.1-1.7c-0.2-0.2-0.5-0.5-0.4-0.5
		c1-1.7,2.2-3.1,4.8-2.8c-0.4,0.8-0.6,1.5-1.1,2c-0.6,0.6-1.4,0.9-2,1.5c-0.7,0.5-1.3,1.1-1.9,1.7c0.1,0.1,0.1,0.2,0.2,0.3
		c1.1-0.8,2.2-1.5,3.3-2.3C751.7,28.4,752.8,27.8,753.9,27.1L753.9,27.1z"/>
	<path class="st0" d="M185.8,60.6c0.5-0.3,1-0.5,1.7-1c-1.2-0.6-2.2-1-3.1-1.4c-0.1,0.2-0.2,0.3-0.3,0.5c0.5,0.3,1,0.6,1.6,0.9
		c-0.9,0.6-1.7,1.6-2.4,1.6c-2.3-0.2-4.7,0.5-7.1-0.8c0.5-0.4,0.9-0.6,1.4-0.9c-0.1-0.3-0.3-0.6-0.5-1h3.8l0-0.2
		c-2.8-0.2-5.5-0.3-8.3-0.5c0-0.1,0-0.2,0-0.2c2.4-0.3,4.8-0.6,7.3-0.9c2.1-0.3,4.3-0.6,6.4-0.8c0.7-0.1,1.4,0.4,2.1,0.4
		c3,0.2,6,0.3,9.1,0.4c0.1,0,0.3-0.2,0.5-0.3c0-0.2,0-0.3,0-0.5c-2.6-0.2-5.2-0.4-7.8-0.6c0.7-0.1,1.6-0.4,2.4-0.3
		c5,0.4,10.1,0.9,15.1,1.3c3.2,0.3,6.3,0.5,9.5,0.7c1.8,0.1,3.7,0.2,5.5,0.4c-9.7,2-19.6,1.3-29.4,1.2c-0.1,0.2-0.1,0.3-0.2,0.5
		c0.5,0.3,1,0.6,1.4,0.9c-2.1,1.4-2.1,1.5-4,1.4c-1.5,0-3-0.2-4.6-0.3C185.8,60.9,185.8,60.8,185.8,60.6"/>
	<path class="st0" d="M333.6,59.2c2.4-1.2,5.2-1.5,5.3-5c1.7,0.2,3.4,0.4,5,0.4c6,0.2,12,0.4,18,0.6c0.2,0,0.5-0.1,0.7,0.1
		c0.6,0.3,1.5,0.7,1.6,1.2c0.1,0.5-0.5,1.3-1,1.7c-0.9,0.7-2,1.2-3.1,1.6c-2.6,0.9-5.2,1.8-8.1,0.9c-1.2-0.4-2.7-0.1-4-0.2
		c-3.9-0.3-7.8-0.6-11.8-0.9C335.5,59.5,334.7,59.4,333.6,59.2 M350.9,57.5c0,0.1,0,0.3,0,0.4h4.7c0-0.1,0-0.3,0-0.4H350.9z"/>
	<path class="st0" d="M347.3,75.5c2.2-0.1,4.4-0.2,6.6-0.3c2.3-0.1,4.5-0.2,6.8-0.2c4.5-0.1,9.1-0.5,13.1,2.1
		c0.6,0.4,1.3,0.8,1.9,1.4c0.3,0.3,0.7,1.1,0.5,1.3c-0.4,0.4-1,0.8-1.5,0.9c-1.5,0.1-2.9,0-4.4,0c-5.8,0-11.5,0-17.3,0
		c-0.9,0-1.2-0.3-1.6-1.2c-0.4-0.9-1.3-1.7-2.1-2.4c-0.6-0.5-1.4-0.7-2-1.1C347.3,75.8,347.3,75.6,347.3,75.5"/>
	<path class="st0" d="M240.3,71.1h-30.6c0-0.2,0-0.3,0-0.5h6.8c0-0.2,0-0.3,0.1-0.5c-0.4-0.1-0.7-0.3-1.1-0.3c-2-0.1-4.1-0.5-6-0.2
		c-4.4,0.8-8.5-0.8-12.7-1.5c-1.1-0.2-2.2-0.4-3.3-0.9h5.9c0,0,0-0.1,0-0.1c-1.4-0.3-2.9-0.7-4.4-1c2.6-3.1,5.6-1.5,8.7-1.6
		c-0.3,0.5-0.4,0.7-0.5,0.8c-0.2,0.2-0.4,0.3-0.8,0.5c1,0.6,1.8,1,2.7,1.4c0.1-0.1,0.2-0.2,0.2-0.3c-0.3-0.3-0.6-0.6-0.9-1
		c2.5-2.3,5.5-0.7,8.2-1.2c0,0.1,0.1,0.3,0.1,0.4c-0.4,0.2-0.8,0.5-1.2,0.7c0.1,0.6,0.3,1.1,0.5,1.8
		C221.5,68.4,231.1,68.3,240.3,71.1"/>
	<path class="st0" d="M369.4,60.5c1.1-0.6,2.1-1,2.8-1.6c0.6-0.5,1.2-1.3,1.4-2.1c0.2-0.8,0.6-1,1.3-1c6.5,0.3,13.1,0.5,19.6,0.8
		c0.4,0,0.8,0,1.2,0.1c1.3,0.4,1.6,1.3,0.6,2.2c-2.5,2.1-5.4,3.1-8.6,3.1c-2.8,0-5.6-0.1-8.4-0.4C376,61.4,372.9,60.9,369.4,60.5"/>
	<path class="st0" d="M247.8,58c-2-0.2-4-0.4-6-0.6c9.1,0.1,18.2,1.4,27.3,1.8c-8.4,2-17,1-25.4,1.3c0,0.2-0.1,0.4-0.1,0.6
		c0.8,0.4,1.5,0.7,2.3,1.1c-0.9,1.4-4.7,1.6-7,0.3c0.4-0.3,0.7-0.5,1.3-0.9c-1-0.5-1.8-0.9-2.6-1.3c-0.1,0.1-0.2,0.3-0.2,0.4
		c0.4,0.3,0.8,0.5,1.2,0.8c-1.8,2.1-4.5,2.4-8.1,0.9c0.5-0.3,0.9-0.6,1.2-0.9c-0.5-1.2-1.5-1.6-2.7-1.5c-1.1,0.1-2.2,0-3.4-0.3
		c1.9-0.3,3.9-0.5,5.8-0.8c1.9-0.3,3.8-0.7,5.6-0.8c1.6,0,3.1,0.4,4.7,0.6c1.7,0.1,3.3,0.1,5,0.1c0.4,0,0.8-0.1,1.2-0.2L247.8,58z"
		/>
	<path class="st0" d="M381.5,75.8c1.4,0,2.8,0,4.2,0c4.6-0.2,9.1-0.6,13.7-0.5c2.9,0.1,5.7,1.3,7.9,3.3c0.8,0.8,0.6,1.7-0.5,1.9
		c-0.6,0.1-1.2,0.1-1.7,0.1c-6.1,0-12.1,0-18.1,0.1c-0.9,0-1.5-0.1-1.6-1.3c0-0.6-0.6-1.2-1.1-1.6c-0.8-0.6-1.7-1.1-2.6-1.6
		C381.5,76.1,381.5,75.9,381.5,75.8 M400,78.4c0-0.1,0-0.3,0-0.4h-3.9c0,0.1,0,0.3,0,0.4H400z"/>
	<path class="st0" d="M243.4,68.7h5.8c-0.9-0.5-1.6-0.8-2.8-1.4c1.6-0.5,2.8-1.1,4-1.3c1.3-0.1,2.7,0.2,4,0.3c0,0.1,0,0.3,0.1,0.4
		c-0.3,0.2-0.6,0.5-1.1,0.9c0.8,0.5,1.5,0.9,2.2,1.3c0.1-0.1,0.2-0.3,0.3-0.4c-0.3-0.3-0.6-0.5-0.9-0.8c0-1.1,4.2-1.7,7.1-1
		c-0.3,0.3-0.7,0.6-0.9,1c-0.3,0.4-0.4,0.9-0.7,1.5c8.4,0.5,16.7,0.4,24.7,2.7c-0.1,0.1-0.3,0.2-0.4,0.2c-3.2,0-6.4,0-9.5,0.1
		c-3.2,0.1-6.3,0.3-9.5,0.3c-2.5,0-4.9-0.1-7.4-0.2c0-0.2,0-0.4,0-0.6h6.3c0-0.2,0-0.4,0-0.5c-0.8-0.1-1.6-0.3-2.3-0.3
		c-2.2,0.1-4.3,0.2-6.5,0.3c-0.4,0-0.9,0-1.3-0.1c-3.7-0.8-7.3-1.6-11-2.4C243.4,68.8,243.4,68.8,243.4,68.7"/>
	<path class="st0" d="M401.3,61.4c2.1-1.1,4.1-1.8,4.1-4.1c2.8,0,5.4,0,8.1,0c3.5,0.1,6.9,0.2,10.4,0.3c0.4,0,0.9,0,1.3,0.1
		c1.1,0.3,1.4,1.4,0.5,2.1c-2.6,2-5.5,3.4-9,2.8c-1.5-0.2-3-0.2-4.5-0.3c-3-0.2-5.9-0.3-8.9-0.4C402.8,61.8,402.3,61.6,401.3,61.4"
		/>
	<path class="st0" d="M294,69.6c-0.5-0.3-0.9-0.6-1.4-1c2.1-1.8,4.4-1.4,7-0.9c-0.6,0.5-0.8,0.8-1.2,1.1c0.7,0.4,1.2,0.7,1.8,1
		l0.2-0.2c-0.2-0.3-0.4-0.6-0.6-0.9c2-1.9,4.2-0.9,6.4-0.7c-0.6,0.3-1.2,0.6-1.8,1c-0.3,0.2-0.5,0.7-0.7,1c0.3,0.2,0.6,0.4,1,0.4
		c2.8,0.1,5.6,0.1,8.3,0.3c4.1,0.4,8.1,1,12.1,1.5c0,0.1,0,0.3,0,0.4c-7.7,0.2-15.4,0.4-23.1,0.6c0-0.1,0-0.2,0-0.3
		c1.6-0.1,3.2-0.2,4.8-0.3c0-0.1,0-0.3,0-0.4c-0.3-0.1-0.5-0.3-0.8-0.3c-2.3,0-4.6,0.1-6.8,0.2c-0.8,0-1.5-0.1-2.3-0.3
		c-2.5-0.5-4.9-1.1-7.8-1.7c0.7-0.3,1.1-0.4,1.9-0.7c-1.9-0.3-3.4-0.5-5.1-0.8c1.1-1.5,3.5-1.9,6.1-1.1c-0.2,0.3-0.5,0.6-0.9,1.1
		c0.8,0.5,1.6,0.9,2.4,1.4C293.8,69.9,293.9,69.8,294,69.6"/>
	<path class="st0" d="M412.1,76.2c1.9-0.2,3.4-0.3,4.9-0.4c3.8-0.2,7.7-0.5,11.5-0.4c2.7,0.1,5.1,1.3,7.2,3c0.9,0.7,0.6,1.7-0.5,2
		c-0.6,0.1-1.2,0.1-1.7,0.1c-5.3,0-10.6,0-16,0.1c-1,0-1.5-0.1-1.7-1.3c-0.1-0.6-0.8-1.3-1.4-1.7C413.8,77.1,413.1,76.8,412.1,76.2
		 M429,78.4c0-0.1,0-0.3,0-0.4h-3.3c0,0.1,0,0.3,0,0.4H429z"/>
	<path class="st0" d="M714.4,40.1c-1.1,0.5-2.1,1-3.2,1.5c0.1,0.1,0.1,0.3,0.2,0.4c1.4-0.6,2.9-1.1,4.3-1.7c0.6-0.3,1.1-0.8,1.7-1
		c1.6-0.6,2.9-1.4,3.1-3.3c0.1-1.1,0.8-1.6,1.8-1.7c1-0.2,1.9-0.5,3.2-0.9c-0.9,2.1-1.9,3.5-4.2,3.6c1.1,1.2-0.1,1.2-0.6,1.7
		c-3.6,2.6-7.9,3.2-12,4.4c-4.9,1.3-9.8,2.7-14.8,3.9c-5.3,1.3-10.6,2.4-16,3.6c-5.7,1.2-11.3,2.5-17,3.7c-0.4,0.1-0.9,0.1-1.3,0
		c3.5-1.8,6.7-4.2,10.8-4.3c0.1,0.2,0.1,0.4,0.2,0.5c-1.6,0.6-3.2,1.2-4.8,1.8c0,0.1,0,0.2,0.1,0.3c0.7-0.1,1.3-0.2,2-0.4
		c1.8-0.4,3.7-0.7,5-2.1c0.1-0.1,0.2-0.1,0.3-0.1c2.2-0.7,4.4-1.4,6.7-2c0.1,0,0.3,0.1,0.6,0.6c-1.5,0.6-3.1,1.2-4.6,1.8
		c0,0.1,0.1,0.2,0.1,0.3c2-0.5,4.1-0.6,5.8-1.9c0.1-0.1,0.1-0.2,0.2-0.2c2.4-1,4.8-1.9,7.3-2.6c-0.8,1.6-2.5,1.5-3.8,2.2
		c0.1,0.1,0.1,0.3,0.1,0.3c2.1-0.7,4.2-1.4,6.4-2.1c2.1-0.7,3.9-2.5,6.2-2.4c0.1,0.1,0.1,0.3,0.2,0.4c-1.3,0.6-2.6,1.2-3.9,1.8
		c1.8-0.1,3.6-0.5,5.1-1.5c0.1-0.1,0.1-0.2,0.2-0.2c2.1-0.9,4.1-1.8,6.2-2.8c0.1,0.2,0.2,0.5,0.3,0.7c-1.1,0.5-2.1,1-3.2,1.6
		c4.2-0.1,7.1-3.5,11.1-4.3L714.4,40.1z"/>
	<path class="st0" d="M272.3,61.5c2.6-0.4,5.3-0.6,7.9-1.2c2.5-0.6,4.9,0,7.3,0.2c1.6,0.1,3.2,0,4.8,0c0-0.2,0-0.5,0-0.7
		c-1.8-0.2-3.5-0.4-5.3-0.5c0-0.1,0-0.3,0-0.4c2.3,0.2,4.6,0.3,6.9,0.6c2.4,0.2,4.8,0.6,7.2,0.8c3.3,0.3,6.6,0.4,9.9,0.9
		c-3,0.4-6.1,1-9.1,1.1c-3.8,0.1-7.7-0.3-11.5-0.3c-0.7,0-1.9,0.3-1.9,0.6c-0.1,1.3,1.1,1.1,1.9,1.2c0.5,0.1,1,0.1,1.5,0.1
		c-0.9,1.4-3.8,1.6-6.4,0.5c0.4-0.3,0.8-0.5,1.4-0.9c-0.9-0.5-1.6-0.9-2.3-1.3c-0.1,0.1-0.2,0.3-0.2,0.4c0.3,0.3,0.6,0.5,1,0.9
		c-0.7,0.6-1.3,1.5-2,1.5c-1.7,0.1-3.6,0.5-5.3-0.9c0.4-0.2,0.8-0.4,1.6-0.9c-0.7-0.5-1.2-1-1.7-1c-1.9-0.2-3.8-0.2-5.7-0.3
		C272.3,61.6,272.3,61.5,272.3,61.5"/>
	<path class="st0" d="M430.4,62.2c0.8-0.5,1.4-0.7,1.8-1c0.6-0.4,1.4-0.9,1.5-1.5c0.3-2.1,1.7-1.7,3.1-1.7c4.9,0.1,9.7,0.2,14.6,0.4
		c0.5,0,1.3,0.4,1.5,0.8c0.2,0.4-0.2,1.3-0.6,1.5c-2.3,1.5-4.7,2.8-7.7,2.5c-3.9-0.4-7.8-0.5-11.8-0.7
		C432.2,62.4,431.5,62.3,430.4,62.2"/>
	<path class="st0" d="M332.7,65.2c-1,1.4-3.5,1.5-5.6,0.4c0.3-0.3,0.5-0.5,0.8-0.9c-0.3-0.2-0.6-0.4-0.9-0.6c-0.9,0.8-1,2.5-2.7,2.1
		c-1.3-0.2-2.5-0.3-3.8-0.4c0.3-0.7,0.7-1.4,0.5-1.6c-0.5-0.4-1.1-0.7-1.7-1c-0.1,0.1-0.2,0.3-0.2,0.4c0.4,0.2,0.7,0.5,1.1,0.8
		c-0.4,0.5-0.8,1-1.4,1.7c-1.5-0.2-3.2-0.3-5-0.5c0.6-2.2,2.3-2,3.9-1.9c0-0.1-0.1-0.2-0.1-0.4h-3.2c0-0.1,0-0.2,0-0.4
		c1.2-0.2,2.5-0.4,3.7-0.6c1.9-0.3,3.7-0.7,5.6-1c0.4-0.1,0.9,0.1,1.3,0.2c1.9,0.6,5.2,0.7,7.1,0c-0.9-0.3-1.4-0.4-2-0.6
		c0-0.1,0-0.1,0-0.2c6.1,0.5,12.3,1,18.4,1.5c0,0.1,0,0.2,0,0.3c-2.8,0.3-5.6,0.8-8.4,0.9c-3.4,0.1-6.8,0-10.2,0
		c-0.4,0-0.7,0.3-1.1,0.5c0.3,0.3,0.5,0.9,0.9,1C330.6,65,331.5,65,332.7,65.2"/>
	<path class="st0" d="M334.6,70.7c-0.5-0.4-0.8-0.7-1.2-1.1c1.9-1.3,3.9-1,6-0.8c-0.2,0.4-0.4,0.7-0.6,1.1c0.4,0.2,0.7,0.4,1.1,0.6
		c0.1-1.8,3-2.5,5.8-1.4c-1,0.3-1.9,0.5-2.7,0.8c-0.3,0.1-0.6,0.5-0.9,0.8c0.3,0.2,0.7,0.5,1,0.6c2.5,0.1,5,0.1,7.5,0.4
		c3.6,0.3,7.1,0.9,10.7,1.3c0,0.2,0,0.3,0,0.5c-6.7,0.2-13.4,0.4-20.1,0.6l0-0.2c1.3-0.1,2.6-0.2,3.8-0.3c0-0.1,0-0.3,0-0.4
		c-0.3-0.1-0.7-0.3-1-0.3c-2,0-4,0.2-6,0.2c-1.3,0-2.6-0.4-3.8-0.7c-1.9-0.4-3.8-0.8-5.6-1.5h2.1c0-0.1,0-0.1,0-0.2
		c-1.2-0.2-2.5-0.5-3.7-0.7c0-0.3,0-0.5,0.1-0.8c1.9-0.2,3.8-0.4,5.8-0.5C332.4,70.4,332.8,70.8,334.6,70.7"/>
	<path class="st0" d="M440.2,76.1c1.8-0.1,3.1-0.2,4.4-0.3c3.5-0.2,7-0.5,10.5-0.6c2.5,0,4.7,1.1,6.6,2.8c0.3,0.3,0.6,0.9,0.5,1.2
		c-0.1,0.3-0.7,0.6-1.1,0.7c-1.7,0.1-3.3,0.2-5,0.2c-3.6,0.1-7.2,0.1-10.8,0.1c-1,0-1.4-0.3-1.7-1.3c-0.2-0.8-1.1-1.4-1.7-2
		C441.4,76.7,440.9,76.5,440.2,76.1"/>
	<path class="st0" d="M457.4,62.6c1.6-1,2.8-2.1,3-4.1c2.3,0,4.5,0,6.7,0c2.9,0,5.9,0.1,8.8,0.2c0.6,0,1.1,0.4,1.7,0.6
		c-0.2,0.5-0.3,1.1-0.7,1.4c-2,1.6-4.1,2.8-6.8,2.5c-3.6-0.3-7.3-0.4-10.9-0.6C458.6,62.8,458,62.7,457.4,62.6 M468.6,61.1h2.9v-0.4
		h-2.9V61.1z"/>
	<path class="st0" d="M364.6,66c-0.4,0.3-0.9,0.6-1.3,0.9c-0.2,0.1-0.4,0.4-0.6,0.4c-1.4-0.1-2.7-0.3-4.2-0.5c0.8-1.6,0.5-2-1.3-2.1
		c0.3,0.2,0.4,0.4,0.5,0.5c0.1,0.1,0.3,0.2,0.4,0.3c-0.1,1.6-3.1,2.1-5.5,0.9c0.2-0.5,0.5-1.1,0.8-1.7h1.4c0,0,0-0.1,0-0.1
		c-0.7,0-1.5-0.1-2.2-0.1c0-0.1,0-0.2,0-0.3c1.6-0.3,3.1-0.5,4.7-0.9c2-0.5,4-0.5,6.1-0.1c1.3,0.3,2.7,0,4.1,0c0-0.2,0-0.4,0-0.6
		c-1.3-0.1-2.6-0.3-3.8-0.4c0-0.1,0-0.2,0-0.3c6.3,0.5,12.6,0.9,19.2,1.4c-6.3,2-12.7,1.1-18.9,1.5c-0.1,0.2-0.2,0.4-0.3,0.7
		C363.9,65.6,364.2,65.8,364.6,66L364.6,66z"/>
	<path class="st0" d="M159.8,69.7c0.7,0,1.4,0,2-0.2c0.3-0.1,0.6-0.4,0.9-0.7c-0.4-0.3-0.7-0.7-1.1-0.8c-1.6-0.2-3.1-0.3-4.7-0.3
		c-1.9-0.1-2.1-0.2-1.6-2c1.2,0.2,2.4,0.5,3.6,0.6c6,0.4,12,0.5,18,1c4,0.4,8,1.3,12.1,2c0,0.1,0,0.3,0,0.4L159.8,69.7
		C159.8,69.8,159.8,69.8,159.8,69.7"/>
	<path class="st0" d="M481.7,62.6c0.6-0.5,1.3-1,1.9-1.5c0.2-0.2,0.6-0.4,0.5-0.7c-0.1-2.1,1.3-1.7,2.5-1.7c3.9,0,7.7,0,11.6,0.1
		c0.7,0,1.3,0.4,2,0.6c-0.4,0.6-0.5,1.5-1.1,1.9c-1.8,1.3-3.7,2.3-6.1,2.1c-3.8-0.3-7.6-0.3-11.4-0.5L481.7,62.6z"/>
	<path class="st0" d="M466.3,75.7c2.5-0.2,4.9-0.3,7.4-0.5c1.8-0.1,3.6-0.3,5.4-0.3c2.5-0.1,4.6,1.1,6.5,2.6
		c0.3,0.2,0.4,0.9,0.3,1.2c-0.2,0.3-0.7,0.6-1.1,0.6c-4.8,0.2-9.5,0.4-14.3,0.5c-0.4,0-1.1-0.3-1.2-0.5
		C468.9,77.6,467.6,76.8,466.3,75.7"/>
	<path class="st0" d="M381.3,70.5c-1.7-0.3-3.3-0.1-4.9,0.7c0,0.1,0,0.3-0.1,0.4c0.5,0.1,1,0.3,1.5,0.3c3.2,0.2,6.3,0.2,9.5,0.5
		c2.3,0.2,4.5,0.8,6.8,1.5c-6.1,0.2-12.2,0.4-18.4,0.6c0-0.1,0-0.2,0-0.3c1.2-0.1,2.3-0.2,3.5-0.3c0-0.2,0-0.4,0-0.6
		c-1.4-0.1-2.8-0.4-4.1-0.1c-2.2,0.6-4.2-0.1-6.3-0.5c-0.9-0.2-1.8-0.3-2.5-0.6c-0.8-0.4-1.4-1.1-2.1-1.6c0-0.2,0-0.3,0-0.5
		c1.6-0.2,3.3-0.4,4.9-0.6c-0.1,0.2-0.2,0.4-0.2,0.6c0.4,0.5,0.8,1.1,1.3,1.6c0.1-0.1,0.3-0.2,0.4-0.3c-0.2-0.3-0.4-0.5-0.9-1.2
		c1.9-0.3,3.6-0.5,5.3-0.8c0.1,0.8,0.1,1.3,0.2,1.9c1.5-1.8,3.4-2.3,5.4-1.6C380.8,69.8,381,70.2,381.3,70.5L381.3,70.5z"/>
	<path class="st0" d="M566.4,63.2c-2,0.3-4,0.5-5.9,0.9c-0.8,0.1-2.2-0.3-1.7,1.5c0,0.1-0.6,0.5-1,0.5c-4.5,0.2-9,0.2-13.4,0.4
		c-2.6,0.1-5.2,0.5-7.8,0.7c-1.6,0.1-3.1-0.1-4.7-0.1c-1.6,0-3.2,0.1-4.9,0.1c-0.5,0-0.9,0.1-1.4,0.1c0-0.1-0.1-0.3-0.1-0.4
		c0.5-0.1,1.1-0.3,1.6-0.3c0.8-0.1,1.6-0.2,2.3-0.1c2.4,0.4,4.2-1.1,6.3-1.6c1.4-0.4,2.9-0.5,4.4-0.7c0.3,0,0.6,0.1,0.9-0.1
		c2.8-1.7,5.8,0,8.6-0.7c0,0.1,0,0.3,0.1,0.4c-1.4,0.3-2.8,0.6-4.2,0.8c-1.2,0.2-2.3,0.2-3.5,0.3c-0.4,0.1-0.8,0.4-1.2,0.6
		c0.4,0.2,0.9,0.5,1.3,0.5c2.8-0.1,5.6-0.2,8.4-0.5c1.3-0.2,2.5-1.1,3.8-1.6c1.1-0.4,2.4-0.4,3.5-0.7c0.6-0.1,1.2-0.5,1.9-0.7
		c0.2-0.1,0.3-0.2,0.5-0.2c2.1,0.1,4.1,0.2,6.2,0.3C566.4,62.9,566.4,63,566.4,63.2"/>
	<path class="st0" d="M386.8,66.6c0.3-0.2,0.6-0.4,0.8-0.6c-0.3-0.3-0.7-0.7-1.1-1.2c2.8-0.2,5.4-1.8,8.5-1c1.4,0.3,2.9,0.1,4.4,0.1
		c0-0.2,0-0.3,0-0.5c-1-0.1-2-0.2-3-0.4c0-0.1,0-0.2,0-0.3c5.4,0.4,10.9,0.8,16.3,1.2c-4.3,1.6-8.7,1.2-13,1.3c-0.4,0-0.9,0-1.3,0
		c-1.1,0-2.3-0.1-1.3,1.6c0.1,0.1-0.1,0.4-0.1,0.5c1.7-0.2,3.3-0.4,5-0.6c0.1,0.2,0.2,0.4,0.2,0.6c-0.5,0.3-1,0.8-1.3,0.8
		c-2.9-0.5-5.9,0.3-8.8-0.8c-0.9-0.4-2.2,0.3-3.3,0.3C388,67.5,387,67.8,386.8,66.6L386.8,66.6z"/>
	<path class="st0" d="M490.2,75.3c0.8-0.1,2-0.2,3.2-0.3c2.9-0.2,5.7-0.6,8.6-0.6c2.2,0,4,1,5.5,2.5c0.8,0.8,0.5,1.3-0.5,1.5
		c-0.4,0.1-0.9,0.2-1.3,0.2c-4.1,0.1-8.2,0.3-12.3,0.4c-0.3,0-0.8-0.1-1-0.4C491.7,77.6,490.9,76.4,490.2,75.3"/>
	<path class="st0" d="M292.6,144.6c1.1-1.1,2.1-2.3,3.2-3.4c1.3,0.9,2.4,1.8,3.6,2.6c-1.4,1.7-1.4,1.7-0.1,3.5c1,1.4,2,2.7,3.1,4.2
		c-1,0.8-2,1.7-3,2.5c-1.6-1-3.2-2-4.7-3.1c-1.3-0.9-0.6-2.4-0.9-3.6c-0.2-0.9-0.6-1.8-0.9-2.6C293,144.7,292.8,144.7,292.6,144.6"
		/>
	<path class="st0" d="M504.4,62.9c0.7-1.3,1.4-2.4,2.1-3.5c0.2-0.3,0.6-0.4,1-0.4c4,0,8.1-0.1,12.1,0c0.5,0,0.9,0.4,1.4,0.6
		c-0.2,0.5-0.3,1.1-0.7,1.5c-2.1,1.9-4.6,2.6-7.4,2.3C510,63,507.1,63,504.4,62.9"/>
	<path class="st0" d="M436.6,70.6c-0.6,1.8-0.6,1.8,1.3,1.9c3.6,0.3,7.3,0.6,10.9,0.9c0.5,0,1,0.2,1.5,0.5c-2.8,0.1-5.6,0.3-8.4,0.4
		c-0.6,0-1.3,0.1-1.9,0.1c-0.7,0-1.7,0.8-1.8-0.7c0-0.1-0.4-0.2-0.7-0.2c-0.4,0-0.8-0.2-1.2-0.1c-3,0.9-5.9-0.3-8.7-0.9
		c-1.4-0.3-2.8-1-4.2-1.5c-0.5-0.2-1.1,0-1.6,0c-0.2,0-0.5,0.1-0.7,0.1c-2.3-0.1-4.6-0.2-6.9-0.3c-0.2,0-0.4-0.2-0.7-0.3
		c1-1.2,2.2-0.8,3.4-0.6c0.9,0.1,1.8,0.1,2.7,0.1c0.3,0,0.6,0,0.9,0c1.9,0,3.8-0.2,5.6,0.2c1.6,0.4,3.2-0.2,4.6,0.2
		C432.7,71.1,434.6,70.2,436.6,70.6"/>
	<path class="st0" d="M407.9,70.4c-0.2,0.3-0.5,0.7-0.5,0.8c0.4,0.4,0.9,1,1.4,1.1c1.6,0.2,3.3,0.1,5,0.3c3.2,0.3,6.5,0.7,9.7,1
		c0,0.2,0,0.3,0,0.5c-4.4,0.2-8.9,0.4-12.9,0.6c-0.6-0.5-1-1-1.4-1c-1-0.1-2.1-0.2-3.1,0c-1.4,0.4-2.6,0.1-4-0.3
		c-2.9-0.8-5.9-1.5-8.8-2.3c-0.2-0.1-0.4-0.2-0.7-0.4c1.6-0.8,3-0.8,4.5-0.1c0.4,0.2,0.8,0.1,1.2,0.1c1.4,0,2.8-0.1,4.3-0.1
		c0.5,0,1-0.1,1.4-0.1C405.3,70.4,406.6,70.4,407.9,70.4L407.9,70.4z"/>
	<path class="st0" d="M308.1,200.9c-2.6-1.4-5.3-2.7-7.9-4.3c-0.8-0.5-1-1.7-1.6-2.5c-0.6-0.8-1.2-1.6-2-2.1c-0.9-0.6-1.3-1-0.8-2.1
		c0.3-0.7,0.5-1.5,0.9-2.5c1.6,1,3.1,1.8,4.6,2.8c0.3,0.2,0.5,0.9,0.4,1.2c-0.3,0.9,0.1,1.5,0.8,2c1.5,1.1,3,2.4,4.6,3.4
		C308.6,197.8,309,199,308.1,200.9"/>
	<path class="st0" d="M427.7,67.3c-0.9,1.5-2.4,0.7-3.6,0.8c-0.9,0-1.8,0-2.6,0c-0.4,0-0.8,0-1.2,0c-1.7,0-3.5-0.1-5.2-0.1
		c-0.5,0-1-0.2-1.6-0.3c0.8-0.9,0.8-0.9,5.2-1.4c-0.8-0.1-1.6-0.1-2.8-0.2c4.3-1.7,8.5-1.7,13.1-1.2c-0.5-0.7-0.7-0.9-0.9-1.1
		c4.4,0.3,8.8,0.6,13.1,0.9c0,0.1,0,0.1,0.1,0.2c-2.2,0.3-4.4,0.8-6.5,1c-2.3,0.2-4.7,0-7,0.1c-0.3,0-0.7,0.4-1,0.6
		C427,66.7,427.3,67,427.7,67.3L427.7,67.3"/>
	<path class="st0" d="M301.4,164c-1.9,2-1.9,2-4.1,0.8c-0.4-0.2-0.8-0.4-1.2-0.6c-1.9-0.7-3-1.8-3-3.9c0-0.6-0.7-1.2-1.2-1.8
		c-0.4-0.4-1-0.6-1.5-1c1-1.3,2-2.5,3-3.8c1.5,0.9,2.9,1.8,4.3,2.7c0,0.2,0.1,0.3,0,0.4c-1.7,2.5-1.6,1.8,0.5,4
		C299.3,161.9,300.3,162.9,301.4,164"/>
	<path class="st0" d="M291.7,178.8c0-0.2,0-0.3,0.1-0.3c1.7-2.5,1.7-2.5,4.4-1.1c0.8,0.4,1.6,0.8,2.5,1.3c-1.3,1.1-0.5,1.8,0.5,2.6
		c1.8,1.4,3.6,2.8,5.4,4.3c-0.5,1-1,1.9-1.6,2.9c-2.3-1.5-4.5-2.9-6.7-4.5c-0.5-0.3-0.9-0.9-1-1.5c-0.5-1.6-1.3-2.8-3-3.3
		C292.1,179.1,291.9,178.9,291.7,178.8"/>
	<path class="st0" d="M528.3,77.3c-4.8,0.8-9.5,0.5-13.8,0.9c-1.1-1.4-2-2.4-2.9-3.5c0.1,0,0.5-0.2,0.8-0.2c3.4-0.3,6.8-0.7,10.1-1
		C524.3,73.4,527.4,75.3,528.3,77.3"/>
	<path class="st0" d="M475.1,73.6c-3.8,0.3-7.6,0.6-11.5,1c0.3-0.4,0.5-0.6,0.8-1c-1.4,0-2.7,0-3.9,0c-0.7,0-1.4,0.2-2,0
		c-2.3-0.7-4.5-1.5-6.7-2.2c-0.6-0.2-1.2-0.2-1.8-0.2c-0.4,0-0.9,0.1-1.3,0.1c-2.4-0.2-4.7-0.5-7.1-0.5c-1.3,0-2.6,0.3-3.9,0.4
		c0-0.1,0-0.3-0.1-0.4c0.4-0.1,0.9-0.4,1.3-0.4c2.4,0,4.9,0,7.3,0c0.4,0,0.8-0.1,1.1-0.1c1,0.1,2.1,0.1,3.1,0.2
		c0.2,0,0.4,0.2,0.5,0.2c1.9-0.1,3.8-0.2,5.7-0.2c2,0,4.1,0,6.1,0c-0.1,0.6-0.2,1.1-0.3,1.6c0.6,0.1,1.1,0.2,1.7,0.3
		C467.9,72.5,471.5,72.4,475.1,73.6"/>
	<path class="st0" d="M566.6,67.4c10.8-0.9,21.7-1.8,32.5-2.7c0,0,0.1,0.1,0.1,0.1c-0.9,0.3-1.8,0.5-2.7,0.8c0,0.1,0,0.2,0,0.3
		c2.3,0.2,4.6,0.3,6.9,0.5c0,0.2,0,0.3,0,0.5c-1.9,0.3-3.8,0.7-5.7,0.9c-0.3,0-0.7-0.3-1-0.4c-0.3-0.1-0.8-0.3-1-0.2
		c-1.5,0.6-3,0.3-4.3-0.3c-2-1-4-0.8-6.1-0.4c-0.9,0.2-1.7,0.1-2.6,0.2c-0.5,0.1-1,0.2-1.4,0.6c2.3,0.2,4.6,0.3,6.9,0.5
		c0,0.1,0,0.3,0,0.4c-2.2,0.4-4.3,1.6-6.6,0.4c-0.3-0.2-0.9-0.2-1.3,0c-1.6,0.6-3-0.2-4.5-0.5c-1.7-0.4-3.5-0.5-5.3-0.6
		C569.1,67.4,567.8,67.5,566.6,67.4C566.6,67.5,566.6,67.4,566.6,67.4"/>
	<path class="st0" d="M524.7,62.7c0.9-1.4,1.5-2.6,2.3-3.6c0.2-0.2,0.7-0.4,1-0.4c3.7-0.1,7.3-0.2,11-0.2c0.4,0,1.1,0.3,1.2,0.5
		c0.1,0.4-0.1,1.1-0.5,1.4c-1.7,1.4-3.5,2.5-5.9,2.4C530.8,62.6,527.8,62.7,524.7,62.7"/>
	<path class="st0" d="M295.7,133.3c0.5-0.4,0.8-0.6,1-0.8c3.1-2.4,3.1-2.4,6.7-0.5c0,0.1,0,0.2,0,0.3c-2,1.7-2,1.6-0.3,3.7
		c0.7,0.8,1.4,1.7,2.1,2.5c0,0.2,0,0.3-0.1,0.4c-2.4,2.7-2.5,2.7-5.3,0.4c-0.6-0.5-1.2-0.8-1.7-1.4c-0.4-0.4-0.7-1-0.7-1.5
		C297.7,134.9,297.4,133.8,295.7,133.3"/>
	<path class="st0" d="M531.7,73.7c2.9-0.3,6-0.4,9-0.9c2.2-0.3,3.8,0.5,5.3,1.7c0.4,0.3,0.5,0.9,0.7,1.3c-0.5,0.2-0.9,0.6-1.4,0.6
		c-3.5,0.3-7,0.5-10.5,0.7c-0.4,0-0.9-0.2-1.1-0.5C533.1,75.8,532.5,74.8,531.7,73.7"/>
	<path class="st0" d="M302.1,174.7c-1.2,1.7-2.5,1.6-4,0.6c-0.8-0.5-1.7-0.9-2.6-1.3c-1.3-0.5-2.1-1.2-2.2-2.7c0-0.5-0.8-1-1.3-1.4
		c-0.5-0.4-1.1-0.7-1.7-1.1c0.9-1,1.8-2,2.7-3.1c1.4,0.8,2.8,1.5,4.2,2.3c-1.4,1-1,1.7,0.1,2.6C299,171.9,300.6,173.3,302.1,174.7"
		/>
	<path class="st0" d="M314.9,211.6c-2.5-1.1-5.1-2-7.5-3.2c-1.2-0.6-2-1.9-3.1-2.9c-0.6-0.6-1.4-1.2-2.1-1.4c-1.3-0.4-1.6-1-1.2-2.3
		c0.2-0.5,0.2-1,0.3-1.7c1.8,0.8,3.5,1.6,5.2,2.4c0.3,0.1,0.6,0.6,0.5,0.9c-0.4,1.3,0.4,1.8,1.3,2.3c2,1.2,4,2.4,6,3.6
		C315.3,209.8,315.7,210.4,314.9,211.6"/>
	<path class="st0" d="M543.9,62c0.6-1.1,1-2.1,1.6-3c0.3-0.4,0.9-0.7,1.4-0.7c3.3-0.2,6.5-0.3,9.8-0.3c0.5,0,0.9,0.4,1.4,0.6
		c-0.2,0.4-0.3,0.9-0.6,1.1c-1.6,1.5-3.2,2.6-5.6,2.4C549.2,61.8,546.5,62,543.9,62"/>
	<path class="st0" d="M488,74.1c-0.2-0.4-0.4-0.8-0.6-0.8c-0.9-0.1-1.8-0.1-2.6,0c-2.7,0.4-5-0.6-7.4-1.5c-0.6-0.3-1.3-0.5-2-0.5
		c-2.2-0.1-4.3,0-6.5,0c0-0.2-0.1-0.3-0.1-0.5c0.7-0.2,1.5-0.4,2.2-0.5c2.4-0.1,4.8-0.1,7.2,0c2,0,3.9,0.2,5.9,0.3
		c1.1,0,2.3-0.1,3.5,0.1c-0.2,0.1-0.5,0.2-0.6,0.4c-0.2,0.2-0.4,0.5-0.5,0.7c0.3,0.1,0.6,0.4,0.8,0.4c1.6,0.1,3.2,0,4.8,0.2
		c2,0.2,3.9,0.5,5.9,0.7c0,0.1,0,0.2,0,0.4C494.5,73.6,491.1,73.8,488,74.1"/>
	<path class="st0" d="M313.4,113.4c-2.6,1.1-3.2,3.5-0.6,5.5c-0.8,0.7-1.6,1.4-2.4,2.2c-0.1,0.1-0.1,0.1-0.2,0.2
		c-0.7,0.2-4.5-2.2-4.4-2.8c0-0.4,0.2-0.9,0.5-1.1c1.1-0.8,0.9-1.5-0.2-2c-0.2-0.1-0.4-0.3-0.7-0.5c1.7-1.1,3.3-2.1,4.9-3.1
		c0.2-0.1,0.7-0.1,0.9,0.1C311.9,112.2,312.6,112.8,313.4,113.4"/>
	<path class="st0" d="M550.3,72.7c3.1-0.3,6.4-0.9,9.6-1c1.3,0,2.6,1.2,3.8,1.9c0.2,0.1,0.4,0.7,0.3,1c-0.1,0.3-0.6,0.5-0.9,0.6
		c-3.4,0.3-6.7,0.6-10.1,0.8c-0.4,0-0.9-0.2-1.1-0.4C551.4,74.7,550.9,73.7,550.3,72.7"/>
	<path class="st0" d="M289.5,180.8c2.7,0.7,3.1,2.9,3.2,4.5c0.1,1.3-1.1,3-2.1,4c-0.7,0.6-2.2,0.2-3.4,0.2c-0.2,0-0.5-0.4-0.6-0.7
		c-0.3-1.1-0.7-2.1-0.9-3.2c-0.1-0.3,0.1-0.8,0.3-1C287.2,183.2,288.4,182,289.5,180.8"/>
	<path class="st0" d="M283.8,158.1c0-1.4,0-2.5,0-3.6c0-0.4,0.3-0.9,0.6-1c1.8-0.9,2.9-2.3,2.8-4.4c-0.1-1.4,1.1-1.6,1.8-1.5
		c0.8,0.1,1.8,0.4,2,1.7c0.6,3.4-2.2,6.4-4.3,7.6C285.8,157.2,284.9,157.6,283.8,158.1"/>
	<rect x="543.8" y="235.5" class="st0" width="7" height="5.7"/>
	<path class="st0" d="M309.1,128.3c-1.2,0.7-2.1,1.2-3,1.8c-0.1,0.1-0.2,0.2-0.4,0.2c-1,0.2-4.4-2.7-4.4-3.8
		c0.1-1.8,0.1-1.8-1.3-2.4c1.3-0.9,2.5-1.7,3.8-2.5c0.2-0.1,0.6-0.1,0.9,0c0.9,0.4,1.8,0.8,2.6,1.2c-0.1,0.1-0.1,0.2-0.2,0.3
		c-2.2,1.4-2.2,1.4-0.3,3.3C307.7,127,308.4,127.6,309.1,128.3"/>
	<path class="st0" d="M284.2,145.5c0.3-1.4,0.5-2.6,0.9-3.8c0.1-0.3,0.7-0.6,1.1-0.7c1.3-0.3,2.2-1,3.1-2c1.3-1.4,2.9-2.5,4.7-4
		c-0.1,2.4,0,4.1-1.5,5.9C290.3,143.5,287.5,144.5,284.2,145.5"/>
	<path class="st0" d="M322.3,103c-0.3,0.2-0.4,0.3-0.6,0.5c-2,1.4-2,1.4-1.4,3.7c0.1,0.3-0.2,0.8-0.4,1.2c-0.2,0.3-0.5,0.4-0.8,0.6
		c-2.9,2-2.9,2-5.5-0.4c0.2-1.4,2.5-2,1.2-3.9c1.1-0.7,2.2-1.2,3.1-2C319.5,101.2,320.8,101.9,322.3,103"/>
	<path class="st0" d="M509.8,73.5c-0.5-1.4-1.6-1-2.6-0.8c-2.3,0.5-4.3-0.2-6.3-1.3c-0.4-0.3-1-0.3-1.5-0.4
		c-1.7-0.1-3.5-0.1-5.2-0.1c-0.5,0-0.9-0.1-1.4-0.2c0-0.2,0-0.4,0-0.5H510c-0.5,0.2-1.2,0.4-2,0.7c0,0.2,0,0.3,0,0.5
		c0.5,0.1,1,0.2,1.5,0.3c3,0.1,6.1,0.2,9.1,0.4c0,0.2,0,0.4,0,0.6C515.7,72.9,512.8,73.2,509.8,73.5"/>
	<path class="st0" d="M561.7,61.2c0.6-1,1-1.9,1.5-2.7c0.3-0.4,0.8-0.8,1.2-0.8c3-0.2,6-0.3,9.1-0.4c0.4,0,1,0.2,1.1,0.4
		c0.1,0.4-0.1,1-0.4,1.3c-1.5,1.4-3.1,2.4-5.3,2.3C566.5,61,564,61.2,561.7,61.2"/>
	<path class="st0" d="M567.2,71.3c2.6-0.2,5.2-0.3,7.8-0.8c2-0.3,3.5,0.3,4.9,1.5c0.3,0.2,0.5,0.7,0.5,1.1c0,0.2-0.5,0.5-0.9,0.6
		c-3.1,0.3-6.1,0.6-9.2,0.9c-0.3,0-0.8-0.1-1-0.4C568.6,73.3,568,72.4,567.2,71.3"/>
	<path class="st0" d="M319.4,213.4c3,0.9,5.9,1.8,8.8,2.7c0.3,0.1,0.6,0.4,0.8,0.6c1.6,1.1,3.2,2.3,4.8,3.5c0.4,0.3,0.6,0.9,0.8,1.3
		c-0.5,0.1-1,0.4-1.5,0.3c-1.2-0.3-2.4-0.7-3.7-1c-0.9-0.2-2-0.2-2-1.7c0-0.2-0.5-0.5-0.9-0.7c-1.9-0.8-3.8-1.6-5.6-2.4
		C319.5,215.4,319.4,215.4,319.4,213.4"/>
	<path class="st0" d="M578.2,60.2c0.5-1,0.9-1.9,1.4-2.7c0.3-0.4,0.9-0.7,1.4-0.7c2.6-0.2,5.3-0.4,7.9-0.5c0.4,0,0.9,0.2,1.1,0.5
		c0.1,0.2-0.1,0.9-0.3,1.1c-1.3,0.9-2.5,2.1-3.9,2.3C583.3,60.4,580.7,60.2,578.2,60.2"/>
	<path class="st0" d="M583,69.9c2.7-0.3,5.2-0.6,7.7-0.7c0.9-0.1,2,0,2.8,0.3c0.8,0.4,1.3,1.2,2,1.9c-0.8,0.3-1.6,0.7-2.4,0.9
		c-2.1,0.3-4.1,0.5-6.2,0.8c-1,0.1-1.9,0.3-2.2-1.2C584.6,71.2,583.7,70.7,583,69.9"/>
	<path class="st0" d="M511.9,69.9c6.1-0.2,12.2-0.5,18.3-0.7c0,0.1,0,0.2,0,0.3c-0.3,0.1-0.7,0.1-1,0.3c-0.4,0.2-0.7,0.5-1.1,0.8
		c0.4,0.2,0.8,0.5,1.2,0.5c1.4,0.1,2.7,0,4.1,0c1.5,0.1,2.9,0.2,4.3,0.3c0,0.1,0,0.3,0,0.4c-1,0.1-2,0.3-3,0.4
		c-1.3,0.2-2.5,0.3-3.8,0.4c-0.1,0-0.2,0.1-0.3,0c-2.3-1.6-5.1,0.3-7.5-1.1c-3.3-1.9-7-1.1-10.5-1.1c-0.2,0-0.5,0-0.7,0
		C511.9,70.2,511.9,70,511.9,69.9"/>
	<path class="st0" d="M282.5,167.8c-0.1-0.9-0.2-1.8-0.2-2.6c0-0.4,0.5-0.9,0.9-1c1.8-0.7,3.4-1.6,4-3.6c1.7,0.6,2.7,2,2.8,3.5
		c0,0.3-0.3,0.6-0.4,0.9C288.1,167.6,285.5,167.9,282.5,167.8"/>
	<path class="st0" d="M284,174.2c0.5-0.5,0.9-1.1,1.4-1.5c0.5-0.4,1.2-0.6,1.7-1.1c1.2-0.9,2.3-1,3.1-0.1c0.6,0.6,0.7,2.8,0.1,3.5
		c-0.5,0.6-0.9,1.3-1.5,1.8c-0.6,0.5-1.5,1-2.1,1c-1.2-0.1-2.5-0.4-2.3-2.2c0-0.4-0.1-0.8-0.1-1.2C284.1,174.4,284,174.3,284,174.2"
		/>
	<path class="st0" d="M598,68.4c2.9-0.4,5.6-0.9,8.2-1c1,0,2.2,0.8,3.1,1.5c0.6,0.5,0.5,1.3-0.5,1.5c-2.6,0.4-5.2,0.7-7.8,1
		c-0.7,0.1-1.1-0.1-1.3-1C599.5,69.8,598.7,69.3,598,68.4"/>
	<path class="st0" d="M308.1,211.2c1.9,0.7,3.8,1.4,5.8,2.1c0.2,0.1,0.4,0.2,0.4,0.3c-0.2,1.7,1.3,1.7,2.2,2.2
		c1.9,1,3.9,1.8,5.8,2.8c0.4,0.2,0.5,0.8,0.8,1.2c-0.4,0.1-0.9,0.3-1.3,0.2c-4.1-1.3-7.8-3.2-11.3-5.7c-0.5-0.4-1.1-0.7-1.7-0.8
		C307.3,213.1,307.4,212.4,308.1,211.2"/>
	<path class="st0" d="M593.5,59c0.4-0.8,0.8-1.8,1.3-2.6c0.2-0.3,0.7-0.6,1-0.6c2.5-0.2,5-0.4,7.6-0.6c0.4,0,0.9,0.3,1.3,0.4
		c-0.2,0.4-0.4,0.8-0.7,1.2c-1.3,1.5-2.9,2.3-5,2.2C597.2,58.9,595.3,59,593.5,59"/>
	<path class="st0" d="M291.1,194.8c1.5-1.7,2.5-1.7,3.9-0.1c0.8,0.9,1.6,1.9,2.5,2.8c0.9,0.9,0.8,2,0.3,2.8
		c-0.3,0.5-1.3,0.8-2.1,0.9c-0.4,0-1.1-0.4-1.3-0.8C293.3,198.6,292.2,196.7,291.1,194.8"/>
	<path class="st0" d="M535.7,69.1c4.6-0.3,9.2-0.6,13.7-0.9c0,0.2,0,0.3,0.1,0.5c-0.4,0.1-0.7,0.1-1.1,0.2c-0.5,0.2-0.9,0.4-1.4,0.6
		c0.5,0.2,1,0.5,1.5,0.6c2.1,0.1,4.3,0.1,6.4,0.2c0.6,0,1.1,0.2,1.6,0.7c-1.9,0.1-3.8,0.3-5.7,0.4c-1,0.1-2.1,0.6-3-0.4
		c-0.2-0.2-0.9-0.1-1.3,0c-1.9,0.4-3.6,0.1-5.4-1c-1.1-0.7-2.9-0.4-4.3-0.5c-0.4,0-0.7,0.1-1.1,0.2
		C535.7,69.4,535.7,69.3,535.7,69.1"/>
	<path class="st0" d="M322.8,98.9c0.7-0.6,2.1-0.8,1.1-2.1c5.5-2.2,5.7-2.2,7.3-1.1c-2,0.7-2,0.7-1.7,2.5c1.3-0.2,2.7-0.4,4.1-0.5
		c0,0,0,0.1,0,0.1c-0.4,0.1-0.8,0.2-1.1,0.3c-2.1,0.2-3.7,1.6-5.4,2.6c-1,0.6-1.7,0.6-2.5-0.3C324.1,99.9,323.5,99.5,322.8,98.9"/>
	<path class="st0" d="M297.3,119.6c3.1-4.5,6.5-8.8,11.2-11.7c0.5-0.3,1.1-0.4,1.7-0.4c-0.8,2.3-2.3,3.9-4.1,5.3
		c-2.6,2-5.1,4-7.7,6.1C298.1,119,297.7,119.3,297.3,119.6"/>
	<path class="st0" d="M326.9,221.3c2.3,0.7,4.3,1.1,6.2,1.8c1.9,0.7,3.7,1.7,5.6,2.4c1.6,0.6,3.3,1.1,5.1,1.7c0,0.9-0.3,1.5-1.7,1
		c-1-0.3-2.1-0.4-3.2-0.6c-1.1-0.2-2.3-0.1-2.6-1.6c-0.1-0.3-0.7-0.5-1.1-0.6c-1.8-0.5-3.6-0.9-5.4-1.4
		C328.5,223.8,327.7,223,326.9,221.3"/>
	<path class="st0" d="M614.3,69.7c-0.7-1-1.3-1.8-2-2.7c0.9-0.2,1.9-0.7,2.8-0.7c2.2,0,4.4-1.3,6.5,0.2c0.5,0.3,0.8,1,1.2,1.5
		c-0.5,0.3-1,0.7-1.6,0.8C618.9,69.1,616.5,69.4,614.3,69.7"/>
	<path class="st0" d="M607.8,57.6c0.4-0.7,0.8-1.6,1.2-2.4c0.1-0.2,0.5-0.5,0.8-0.5c2.5-0.3,4.9-0.6,7.4-0.8c1-0.1,1.4,0.6,0.7,1.2
		c-1,1-2.2,2.1-3.5,2.4C612.2,57.8,610,57.6,607.8,57.6"/>
	<path class="st0" d="M291.7,125.3c0.4-2,1.6-2.8,3.6-3.3c1.6-0.4,2.9-1.9,4.4-3c0.1-0.1,0.2-0.2,0.3-0.3c0.7-0.2,1.4-0.4,2-0.6
		c-0.2,0.9-0.1,2.1-0.6,2.7C299.6,122.8,294.6,125,291.7,125.3"/>
	<path class="st0" d="M297.7,126.6c0.1,1.7-0.5,2.9-1.8,3.8c-2.2,1.5-4.4,3.1-6.7,4.8C290.3,131.3,292.2,127.6,297.7,126.6"/>
	<path class="st0" d="M627.3,67.8c-0.7-0.9-1.2-1.7-1.8-2.7c1.1-0.3,2.2-0.8,3.3-0.8c2-0.1,4.1-1.2,5.9,0.6c0.3,0.3,0.5,0.7,0.7,1.1
		c-0.4,0.2-0.8,0.5-1.2,0.6C631.9,67.1,629.5,67.4,627.3,67.8"/>
	<path class="st0" d="M631.2,52.8c-1.4,2-2.9,3.4-5.3,3.4c-1.6-0.1-3.2,0-4.6,0c0.3-0.7,0.6-1.5,1-2.3c0.1-0.2,0.4-0.5,0.6-0.5
		c2.5-0.3,4.9-0.6,7.4-0.9C630.5,52.4,630.8,52.6,631.2,52.8"/>
	<path class="st0" d="M350.7,93.6c-1.4,0.4-2.7,0.8-4.1,1.1c-2.1,0.5-2.1,0.5-4.1-0.8c0.7-0.3,1.5-0.4,1.9-0.8
		c0.3-0.4-0.1-1.2-0.3-2c2.2-0.9,4.7-1.3,7.3,0.2C350,91.8,349.9,92.6,350.7,93.6C350.7,93.7,350.7,93.6,350.7,93.6"/>
	<path class="st0" d="M564.8,69c1.3,0,2.6,0,4,0c1.3,0,2.6,0.1,3.9,0.2c0,0.1,0,0.3,0,0.4c-1.6,0.3-3.1,0.7-4.7,0.8
		c-0.9,0.1-1.8-0.3-2.7-0.5c-0.4-0.1-0.8-0.2-1.1-0.1c-1.9,0.7-3.5,0-5.2-0.7c-1.3-0.5-2.6-1.1-4.1-0.5c-0.1,0-0.3-0.1-0.5-0.4
		c3.4-0.3,6.7-0.7,10.2-1C564.7,67.9,564.7,68.4,564.8,69"/>
	<path class="st0" d="M316.4,219.2c1.7,0.7,3.8,1,5,2.2c2.1,2.2,5,2.4,7.4,3.6c0.9,0.4,1.7,1,2.5,1.5c-0.1,0.2-0.1,0.3-0.2,0.5
		c-2.3-0.7-4.6-1.1-6.8-2c-2.7-1.1-5.2-2.6-7.7-4.1c-0.4-0.2-0.6-0.9-0.8-1.4C316.1,219.5,316.2,219.3,316.4,219.2"/>
	<path class="st0" d="M637.5,63.1c2.4-0.4,4.6-0.8,6.8-1.1c0.3-0.1,0.8,0.1,1.1,0.3c0.6,0.5,1.1,1,1.6,1.6c-0.6,0.3-1.2,0.8-1.9,0.9
		c-1.5,0.4-3,0.6-4.6,0.9c-0.9,0.1-1.6,0.1-1.9-1C638.6,64.2,638.1,63.8,637.5,63.1"/>
	<path class="st0" d="M642.7,51c-0.1,2.7-3.6,4.1-8.8,3.6c0.4-0.9,0.7-1.7,1.1-2.6c0.1-0.1,0.3-0.3,0.5-0.3c2.3-0.3,4.5-0.6,6.8-0.9
		C642.5,50.9,642.6,51,642.7,51"/>
	<path class="st0" d="M645.4,53.3c0.5-0.9,0.8-1.7,1.3-2.5c0.2-0.3,0.7-0.7,1.1-0.7c1.8-0.3,3.6-0.6,5.3-0.8c0.3,0,0.7,0.2,1,0.3
		c-0.1,0.3-0.2,0.6-0.4,0.9c-1.3,2-3.5,2.3-5.6,2.7C647.3,53.3,646.4,53.3,645.4,53.3"/>
	<path class="st0" d="M169.8,55.2c-3.3,0.4-6.7,0.7-10,1.1c-1.1,0.1-2.1,0.2-3.2,0.3c-1,0.1-1.4-0.3-1.4-1.3c0-1,0.2-1.4,1.3-1.3
		c4.4,0.4,8.8,0.7,13.2,1.1C169.7,55.1,169.7,55.2,169.8,55.2"/>
	<path class="st0" d="M649.2,61.1c2.4-0.4,4.5-0.8,6.7-1.1c0.2,0,0.6,0.1,0.8,0.3c0.5,0.5,1,1,1.5,1.5c-0.6,0.3-1.1,0.7-1.7,0.9
		c-1.5,0.4-3.1,0.6-4.7,1c-0.7,0.2-1.1,0.2-1.2-0.7C650.3,62.4,649.8,62,649.2,61.1"/>
	<path class="st0" d="M341,90.8c-0.4,0.8-3,0-1.4,2.2c-2.5,1.1-4.9,1.8-7.5,0.6c2-3.1,5.2-3,8.3-3.2c0.2,0,0.4,0.1,0.6,0.1
		C340.9,90.5,340.9,90.7,341,90.8"/>
	<path class="st0" d="M297.1,207.5c0.8-0.6,1.6-1.3,2.5-2.1c1.2,0.9,2.6,1.9,3.9,3c0.3,0.2,0.6,0.9,0.5,1.1
		c-0.1,0.3-0.7,0.4-1.1,0.6c-0.3,0.1-0.6,0-0.9,0C299.8,210.6,298.3,209.4,297.1,207.5"/>
	<path class="st0" d="M627.1,61.2c-1.2,0.4-2.3,0.8-3.5,1.2c0,0.1,0,0.2,0,0.3h5.9c0,0.2,0,0.5,0,0.7c-1.9-0.1-3.6,1.8-5.7,0.3
		c-0.2-0.1-0.5,0-0.7,0c-1.1,0-2.3,0-3.4-0.1c-2.2-0.2-4.5-0.4-7.1-0.7c2.9-0.3,5.4-0.4,7.9-0.7C622.6,62,624.8,61.6,627.1,61.2
		L627.1,61.2z"/>
	<path class="st0" d="M305.6,106.5c3.7-3.7,8.7-4.9,13.4-6.5C315,103,310.4,105,305.6,106.5"/>
	<path class="st0" d="M664.8,47.7c-0.5,2.8-4.9,4-8,3.6c0.4-0.8,0.7-1.6,1.1-2.4c0.2-0.3,0.6-0.5,0.9-0.6c1.8-0.4,3.5-0.7,5.3-1
		C664.3,47.4,664.5,47.6,664.8,47.7"/>
	<path class="st0" d="M668.7,59.8c-1.5,0.4-2.9,0.8-4.3,1.2c-0.5,0.1-0.9,0.2-1.4,0.3c-0.8,0.2-1.5,0.4-1.7-0.9
		c-0.1-0.4-0.7-0.8-1-1.1C664.2,57.3,667.4,57.4,668.7,59.8"/>
	<path class="st0" d="M176.3,59.2c-0.7,0.6-1.3,1.1-2.2,1.9c-2.1-0.2-4.9,0.6-7.3-0.8c0.6-0.4,1.3-0.9,2.3-1.6
		C171.1,58.6,173.7,57.8,176.3,59.2"/>
	<path class="st0" d="M600.3,64.5c3.6-0.3,7-0.6,10.5-1c-0.2,0.3-0.3,0.5-0.7,1h6.4c0,0.2,0,0.4,0,0.6c-1.8,0.5-3.6,1.1-5.5,0.7
		c-0.3-0.1-0.6-0.3-0.8-0.3c-3.2,1.1-6.2-1.8-9.4-0.8C600.8,64.8,600.7,64.7,600.3,64.5"/>
	<path class="st0" d="M667.5,49.4c0.2-2.8,2.1-3.2,4.3-3.3c1.1-0.1,2.1-0.4,3.3-0.6C674,48.5,671,49.9,667.5,49.4"/>
	<path class="st0" d="M354.1,232.9c-0.4,0.1-0.7,0.2-1.1,0.2c-1.9-0.3-3.9-0.5-5.8-0.9c-3.2-0.8-6.4-1.7-9.6-2.6
		c-0.4-0.1-0.8-0.5-1.2-0.8c0.1-0.2,0.2-0.4,0.3-0.6c5.8,1.5,11.5,3,17.3,4.5L354.1,232.9z"/>
	<path class="st0" d="M757.5,30.1c1.2,0.8,2.9,0.5,4.2,2.1c-1.6,0.6-2.9,1.1-4.3,1.7c-0.3-0.6-0.5-1-0.8-1.6
		c0.3-0.2,0.6-0.4,1.1-0.7h-5.1c0-0.2-0.1-0.4-0.1-0.6c2-0.7,4-1.3,6-2c0.1,0.1,0.1,0.2,0.2,0.3C758.2,29.6,757.8,29.9,757.5,30.1"
		/>
	<path class="st0" d="M156.9,59.8c2.9-2.2,6-1.1,9.1-1.1c0,0.1,0.1,0.3,0.1,0.4c-0.4,0.3-0.9,0.6-1.4,0.9c0.2,0.3,0.5,0.5,0.9,1
		C162.5,60.7,159.6,61.4,156.9,59.8"/>
	<path class="st0" d="M627.1,61.2c3.9-0.5,7.9-1,11.8-1.5c0,0.1,0,0.1,0,0.2l-2.7,0.6l0,0.3c1.7,0.1,3.5,0.2,5.2,0.4
		c0,0.1,0,0.3,0,0.4c-1.8,0.2-3.4,1.6-5.4,0.5c-0.1,0-0.2-0.1-0.3-0.1c-2.5-0.2-5.1-0.4-7.6-0.6C627.8,61.4,627.5,61.3,627.1,61.2
		C627.1,61.2,627.1,61.2,627.1,61.2"/>
	<path class="st0" d="M352.2,89.2c2.6-2.5,5.8-1.8,9-2.1c-1.1,1.7-2.4,2.5-4.2,2.7C355.3,90,353.7,90.5,352.2,89.2"/>
	<path class="st0" d="M678.7,57.6c-2.1,0.5-4.1,1.2-6,1.4c-0.6,0.1-1.3-1.2-2-1.8C674.6,55.5,677.3,54.9,678.7,57.6"/>
	<path class="st0" d="M731.7,37.5c1.8-0.5,3.5-1,5.3-1.5c0,0.1,0.1,0.2,0.1,0.3c-0.3,0.2-0.6,0.4-1.1,0.8c1.7,0.3,3.2,0.4,4.7,0.8
		c0.3,0.1,0.7,0.6,0.8,0.9c0.1,0.2-0.4,0.6-0.7,0.7c-1,0.4-2.1,0.8-3.1,1.1c-0.3-0.6-0.5-1.1-0.8-1.7c0.3-0.2,0.5-0.5,0.6-0.5
		c-1.8-0.1-3.8-0.2-5.7-0.3C731.7,37.8,731.7,37.7,731.7,37.5"/>
	<path class="st0" d="M222.4,62.2c2.3-3,5.1-1.8,8.1-1.2c-0.7,0.7-1.2,1.3-2.1,2.1C226.8,62.9,224.5,63.7,222.4,62.2"/>
	<path class="st0" d="M763.9,27.8c0.8,0.4,1.7,0.7,2.5,1.1c0.4,0.2,0.8,0.5,1.2,0.8c-0.4,0.3-0.7,0.7-1.1,0.9
		c-0.4,0.2-0.8,0.3-1.2,0.5c-1.1,0.6-1.8,0.4-2.1-1c0.3-0.2,0.6-0.5,1-0.7c-1.6,0.4-3.2,0.6-4.9-0.7c1.6-0.5,3.1-0.9,4.5-1.4
		C763.9,27.5,763.9,27.6,763.9,27.8"/>
	<path class="st0" d="M684.6,43.5c-1.6,3.5-4,4.4-7.2,3.6c0.3-0.7,0.5-2,1.1-2.2C680.4,44.3,682.4,44,684.6,43.5"/>
	<path class="st0" d="M185.6,65.7c3-2.4,5.9-1.5,9.1-1.3c-0.4,0.5-0.5,0.7-0.7,0.9c-0.2,0.2-0.4,0.3-0.6,0.4c0.2,0.3,0.5,0.6,0.8,1
		C191.3,66.3,188.6,66,185.6,65.7"/>
	<path class="st0" d="M652.9,59.5c-1.9,1-4,0.9-6,0.7c-2-0.2-3.9-0.4-5.9-0.7c0-0.1,0-0.3,0-0.4c1.5-0.2,2.9-0.4,4.4-0.6
		c1.4-0.2,2.9-0.4,4.4-0.4c-0.5,0.2-1.1,0.4-1.6,0.5l0,0.4h4.8C652.8,59.2,652.9,59.3,652.9,59.5"/>
	<path class="st0" d="M687.9,55.4c-2,0.5-3.8,1.1-5.7,1.4c-0.5,0.1-1.2-1.1-1.8-1.7C684.4,53.1,686.7,52.7,687.9,55.4"/>
	<path class="st0" d="M765.5,26.6c1.4-0.4,2.7-0.7,4.1-1.1c0.2-0.1,0.5,0.1,0.7,0.2c0.9,0.4,1.9,0.8,2.8,1.2
		c0.3,0.1,0.5,0.4,0.6,0.7c0,0.1-0.3,0.5-0.5,0.6c-0.7,0.3-1.3,0.6-2,0.7c-0.4,0.1-1-0.1-1.4-0.2c0.1-0.5,0.2-1,0.3-1.4
		c-1.3-0.1-2.9-0.1-4.5-0.2C765.6,27,765.5,26.8,765.5,26.6"/>
	<path class="st0" d="M691.1,54.6c-0.5-0.8-0.9-1.4-1.3-2c4.3-2,5.5-2,7.1,0.3C694.9,53.5,693,54.1,691.1,54.6"/>
	<path class="st0" d="M693.4,41.7c-0.1,2.3-3.3,3.9-6.4,3.7C687.3,42.9,688.5,42.2,693.4,41.7"/>
	<path class="st0" d="M673.7,55.3c-3.3,1.7-6.6,1-10.3,0c3.2-0.6,6.2-1.2,9.1-1.8c0,0.1,0.1,0.2,0.1,0.3c-1,0.3-2.1,0.5-3.2,0.8
		c0,0.1,0,0.2,0,0.3h4.3C673.7,55,673.7,55.2,673.7,55.3"/>
	<path class="st0" d="M276.6,65c-2-0.3-4-0.6-6-0.8c0-0.1,0-0.3,0-0.4c1-0.3,1.2-1.8,2.6-1.5c1.5,0.3,3.3-0.5,4.7,0.8
		c-0.4,0.6-0.8,1.1-1.2,1.6C276.6,64.7,276.6,64.8,276.6,65"/>
	<path class="st0" d="M659.5,56.3c-0.2,0.2-0.4,0.4-1,0.8h5.2c-3.6,1.9-7.2,1.2-10.9,0.1c2.2-0.4,4.4-0.8,6.6-1.2
		C659.4,56.1,659.4,56.2,659.5,56.3"/>
	<path class="st0" d="M213.7,62c2.2-2.6,4.9-0.8,7.4-1.5c-0.3,0.9-0.5,1.5-0.8,2.3C218.3,62.7,216,63,213.7,62"/>
	<path class="st0" d="M312.7,218.3c-3,0.9-4.6-0.4-6-2c-0.3-0.3-0.3-0.9-0.4-1.4c0.5-0.1,1.2-0.5,1.5-0.3
		C309.4,215.7,310.9,216.9,312.7,218.3"/>
	<path class="st0" d="M695.9,43.3c0.2-0.7,0.4-1.3,0.7-2c0.1-0.2,0.4-0.5,0.6-0.6c1.5-0.4,3-0.7,4.5-1.1
		C701.9,42,698.6,43.9,695.9,43.3"/>
	<path class="st0" d="M239.3,66.9c0.7-0.3,1.4-0.9,2.1-1c1.6-0.1,3.3,0.1,4.9,0.1c0,0.2,0,0.3,0,0.5c-0.3,0.2-0.6,0.5-0.9,0.8
		c0.3,0.3,0.5,0.6,0.8,0.9c0,0.1-0.1,0.2-0.1,0.3c-2.3-0.4-4.5-0.7-6.8-1.1C239.4,67.2,239.4,67,239.3,66.9"/>
	<path class="st0" d="M698.2,50.3c2.6-0.6,4.7-2.5,7.2,0.3c-2,0.6-3.6,1.2-5.3,1.5C699.7,52.1,699,51,698.2,50.3"/>
	<path class="st0" d="M707,47.7c1.3-0.3,2.7-0.7,4-1c0.5-0.1,1.2,0.2,1.6,0.5c0.6,0.4,0.6,1-0.2,1.3c-1.2,0.4-2.4,1-3.6,1
		c-0.6,0-1.3-0.8-2-1.3C706.9,48.1,706.9,47.9,707,47.7"/>
	<path class="st0" d="M185.2,64.3c-2.6,2.4-5.5,1-8.3,1C179.5,63.1,182.4,64.2,185.2,64.3"/>
	<path class="st0" d="M710.3,37.5c-1.2,2.7-2.7,3.5-6,3.8c0.2-0.7,0.4-1.3,0.6-2c0.1-0.2,0.3-0.4,0.5-0.5
		C707,38.3,708.6,37.9,710.3,37.5"/>
	<path class="st0" d="M688.8,50.6h3.5c0,0.1,0,0.3,0,0.4c-1.2,0.3-2.2,1-3.8,0.7c-1.8-0.3-3.7-0.1-5.5-0.1c0-0.2,0-0.3,0-0.5
		c2.4-0.6,4.9-1.3,7.3-1.9l0.1,0.4c-0.6,0.2-1.1,0.4-1.7,0.5C688.8,50.4,688.8,50.5,688.8,50.6"/>
	<path class="st0" d="M386.8,66.6c-1.7,1.1-3.4,0.8-5.2,0.4c-0.5-0.1-1.1,0-1.7,0c-1.3,0.1-2.6,0.2-3.9,0.3c0-0.3,0-0.5-0.1-0.8
		c1.4-0.1,2.9-0.6,4.2-0.3c1.6,0.4,3.1-0.2,4.5-0.4C385.7,65.5,386.4,65.6,386.8,66.6C386.8,66.6,386.8,66.6,386.8,66.6"/>
	<path class="st0" d="M204.8,61.4c2.4-1.5,5-0.6,7.7-0.9c-0.5,0.8-0.8,1.3-1.2,2c-2.1-0.2-4.3-0.4-6.6-0.6
		C204.7,61.7,204.8,61.5,204.8,61.4"/>
	<path class="st0" d="M712.5,39.2c0.9-2.6,2.1-3.4,5.3-3.5C717.8,37.6,715,39.4,712.5,39.2"/>
	<path class="st0" d="M270.2,62.6c-2.2,2.7-4.6,1.5-7.4,1.2c1-0.6,1.7-1.3,2.4-1.4C266.8,62.3,268.5,62.5,270.2,62.6"/>
	<path class="st0" d="M674.8,53c1.9-0.5,3.5-0.9,5.2-1.3c0,0.1,0.1,0.2,0.1,0.2c-0.3,0.2-0.6,0.4-1.3,0.8h4.9
		C681,54.5,676.7,54.6,674.8,53"/>
	<path class="st0" d="M749.7,34c-1.5-0.1-3.1-0.1-4.6-0.2c0-0.2,0-0.3,0-0.5c2-0.6,4-1.3,5.9-1.9c0.1,0.1,0.1,0.2,0.2,0.3
		c-0.3,0.3-0.6,0.5-0.9,0.8c0.4,0.1,0.8,0,1.2,0.2c0.2,0.1,0.2,0.5,0.4,0.7C751.1,33.6,750.4,33.8,749.7,34"/>
	<path class="st0" d="M720.7,45.9c-1.5,0.5-2.7,1.1-4.1,1.3c-0.5,0.1-1.2-0.7-1.8-1.1C716.5,44.1,719.5,44,720.7,45.9"/>
	<path class="st0" d="M329.4,93c-3.1,2.2-6.7,3.3-10.3,4.5C322,94.9,325.7,93.9,329.4,93"/>
	<path class="st0" d="M320.4,225.2c-2.8-0.3-5-2.1-7.6-3.1c1.2-1,2.2-1,3.4-0.2c1.4,1,2.9,1.9,4.4,2.8
		C320.5,224.9,320.4,225,320.4,225.2"/>
	<path class="st0" d="M781.7,24c0.3-0.2,0.5-0.3,0.8-0.5c-1.8-0.1-3.4-0.2-5.4-0.3c2.1-0.8,3.9-1.8,5.7-0.2c0.1,0.1,0.3,0.1,0.4,0.2
		c0.6,0.3,1.2,0.6,1.7,0.9c-0.8,0.4-1.6,1-2.5,1.3c-0.3,0.1-0.9-0.4-1.3-0.7C781.4,24.4,781.5,24.2,781.7,24"/>
	<path class="st0" d="M230.5,67c2.6-2,5.2-0.9,7.8-1.3c-0.8,1.3-1.5,1.9-2.9,1.7C233.9,67.2,232.4,67.2,230.5,67"/>
	<path class="st0" d="M722.5,43.1c1.3-0.4,2.5-0.8,3.7-1c0.5-0.1,1.1,0.6,1.7,0.9c-0.4,0.3-0.7,0.8-1.2,1c-0.4,0.2-0.8,0.3-1.2,0.5
		C724,45.3,723.1,45,722.5,43.1"/>
	<path class="st0" d="M195.7,61.3c2.5-1.7,5.3-0.6,7.9-0.8C201.2,63,198.4,61.2,195.7,61.3"/>
	<path class="st0" d="M167,64.8c2.8-2,5.7-0.7,8.7-1.2C173.3,65.5,173.3,65.5,167,64.8"/>
	<path class="st0" d="M749.7,34c0.7-0.2,1.4-0.4,2.1-0.6c1.2-0.2,2.4-0.5,3.3,1.1c-1.4,0.5-2.7,1.1-4,1.5
		C750.2,36.3,749.6,35.3,749.7,34"/>
	<path class="st0" d="M692.7,48.9c2.4-0.7,4.4-1.2,6.5-1.8c0,0.1,0.1,0.2,0.1,0.3c-0.6,0.2-1.1,0.4-2.1,0.8c1.4,0.1,2.4,0.2,3.4,0.3
		C698.2,50.2,695.6,49.7,692.7,48.9"/>
	<path class="st0" d="M730.4,38.4c-0.3,0.2-0.7,0.4-1.2,0.7c0.8,0.1,1.5,0.3,2.4,0.4c-2.7,1.8-5.2,0.6-7.7,0.3
		c2.1-0.6,4.2-1.2,6.3-1.7C730.3,38.2,730.4,38.3,730.4,38.4"/>
	<path class="st0" d="M324.8,226.2c2.5,1.2,5.3,0.7,7.2,2.9C330.7,229.9,325.3,227.9,324.8,226.2"/>
	<path class="st0" d="M754,27.1c0.2-0.8,0.2-2,0.7-2.3c1.1-0.7,2.5-0.9,3.9-1.3c0,1.4-0.3,2.4-1.6,2.7
		C755.9,26.4,754.9,26.8,754,27.1C753.9,27.1,754,27.1,754,27.1"/>
	<path class="st0" d="M381.3,70.5c1-1,2.3-0.9,3.5-0.9c1.9,0.1,3.7,0.1,5.6,0.2c0.4,0,0.9,0.1,1.5,0.2c-1,1.2-2.1,0.9-3.2,0.8
		c-1.4-0.1-2.8-0.1-4.3-0.1C383.4,70.7,382.3,70.6,381.3,70.5L381.3,70.5"/>
	<path class="st0" d="M786.9,22.7c0.8-0.4,1.2-0.6,1.6-0.9c0-0.1,0-0.2,0-0.3h-4.5c0-0.1,0-0.3,0-0.4c1.5-0.9,3-0.6,4.5-0.1
		c0.2,0.1,0.5,0.2,0.7,0.3c0.5,0.3,0.9,0.5,1.4,0.8c-0.7,0.5-1.4,1-2.2,1.3C788.1,23.5,787.5,23,786.9,22.7"/>
	<path class="st0" d="M734.9,41.2c-3.1,1.8-3.8,1.8-5.2,0.1C731.5,39.6,733.8,39.5,734.9,41.2"/>
	<path class="st0" d="M313.8,63.9c-2.2,2.6-4.4,1.6-6.7,1c0.8-0.3,1.6-0.8,2.4-0.9C310.8,63.8,312.2,63.9,313.8,63.9"/>
	<path class="st0" d="M741.4,30.7c0.4-2.3,1-2.8,4-3.1C745.8,29.5,743.9,31,741.4,30.7"/>
	<path class="st0" d="M739,29.2c-0.4,2.6-2.6,4.1-4.4,3.4C734.6,29.7,737.3,30.4,739,29.2"/>
	<path class="st0" d="M255.6,63.6c2.1-1.9,4.3-1.1,6.5-1.2c0,0.1,0.1,0.2,0.1,0.4c-0.5,0.4-0.9,1.2-1.4,1.2
		C259.1,63.9,257.4,63.7,255.6,63.6"/>
	<path class="st0" d="M745.5,35.4c0.8,0.5,2.2-0.1,2.3,1.6c-1,0.4-2,1-3.1,1.2c-0.5,0.1-1.1-0.7-1.9-1.2
		C743.9,36.3,744.7,35.8,745.5,35.4L745.5,35.4"/>
	<path class="st0" d="M706.6,45.3c-0.1,0.2-0.2,0.4-0.4,0.7c0.5,0.1,0.9,0.1,1.4,0.2c0.5,0,0.9,0,1.4,0.2c-2.3,1.3-4.6,1.3-7.1,0.2
		C703.4,46.2,704.9,45.8,706.6,45.3"/>
	<path class="st0" d="M346.4,66c1.5-1.1,4.4-1.4,5.5-0.6C350.7,66.8,348.2,67.1,346.4,66"/>
	<path class="st0" d="M165.3,63.8c-2.7,1.5-5.6,0.6-8.3,0.9C159.5,62.7,162.5,64,165.3,63.8"/>
	<path class="st0" d="M745.5,35.4c-2.4,1.1-4.9,0.8-7.4,0.2c1.8-0.6,3.6-1.2,5.3-1.7c0.1,0.1,0.1,0.2,0.2,0.3
		c-0.2,0.3-0.5,0.5-0.7,0.7C743.7,35,744.6,35.2,745.5,35.4C745.5,35.4,745.5,35.4,745.5,35.4"/>
	<path class="st0" d="M278.6,68.3c1.9-1.7,4.1-0.8,6.2-0.8C283,69.8,280.7,68.2,278.6,68.3"/>
	<path class="st0" d="M334.8,229.5l8.3,2.5c0,0.2-0.1,0.3-0.1,0.5c-2.8-0.8-5.8-0.7-8.4-2.2C334.7,230,334.8,229.8,334.8,229.5"/>
	<path class="st0" d="M724.5,42c-2.4,1.3-4.8,1-7.1,0.2C720.9,41.3,722.7,41.2,724.5,42"/>
	<path class="st0" d="M717.1,44.2c-2.2,1.2-4.3,1.1-6.7,0.4C712.2,43.4,714.6,43.3,717.1,44.2"/>
	<path class="st0" d="M306.3,64.2c-1.8,1.7-3.8,0.7-5.9,0.8C301.8,63.6,304,63.3,306.3,64.2"/>
	<path class="st0" d="M222.6,66.4c2.1-1.4,4.4-0.4,6.7-0.7C228.1,67.1,225.8,67.3,222.6,66.4"/>
	<path class="st0" d="M220.5,65.7c-2.4,1.7-5,0-7.4,0.7C215.5,64.7,218.1,65.6,220.5,65.7"/>
	<path class="st0" d="M247.1,62.6c2.2-0.2,4.4-0.3,6.6-0.5c0,0.2,0.1,0.4,0.1,0.6c-0.7,0.2-1.4,0.6-2.1,0.6c-1.5,0.1-3.1,0-4.6,0
		C247.1,63.2,247.1,62.9,247.1,62.6"/>
	<path class="st0" d="M345.9,65.4c-1.8,1.6-3.7,0.8-5.7,0.8C341.9,64.9,343.5,64.7,345.9,65.4"/>
	<path class="st0" d="M326.2,68.9c-0.9,1.2-3.2,1.3-5.5,0l5.4-0.6C326.1,68.5,326.1,68.7,326.2,68.9"/>
	<path class="st0" d="M333.9,65.4c1.8-0.1,3.5-0.3,5.6-0.5c-1.3,1.6-3.3,1.8-5.5,1C333.9,65.7,333.9,65.6,333.9,65.4"/>
	<path class="st0" d="M777.4,24.3c-1.4,1.4-3.4,1.5-4.8,0.2C774.1,23.7,775.7,23.5,777.4,24.3"/>
	<path class="st0" d="M779.7,26c-0.8,0.3-1.6,0.8-2.4,0.9c-0.5,0.1-1-0.2-1.5-0.4c0.3-0.4,0.5-0.9,0.8-1.1
		C778.1,24.5,778.7,24.7,779.7,26"/>
	<path class="st0" d="M779.5,19c0.1-0.6,0.1-1.1,0.2-1.7c1-0.3,1.9-0.6,2.9-0.9C783.2,18.3,781.8,18.6,779.5,19"/>
	<path class="st0" d="M263.7,67.7c1.7-1.7,3.7-0.6,5.6-0.7C267.6,68.8,265.6,67.4,263.7,67.7"/>
	<path class="st0" d="M785.6,19.3c2-0.6,3-3.1,5.7-2.8C789.7,18.4,787.9,19.3,785.6,19.3"/>
	<path class="st0" d="M785,17.2c-0.1-1.3,1.2-2.1,3.2-2C787.7,17,787,17.5,785,17.2"/>
	<path class="st0" d="M299.2,63.7c-1.9,2.1-3.9,1.1-5.7,1C295.1,63.3,297,64,299.2,63.7"/>
	<path class="st0" d="M364.6,66h4.6c0.1,0.2,0.1,0.3,0.2,0.5c-0.5,0.2-1,0.7-1.5,0.7c-1,0-1.9-0.1-2.9-0.2
		C364.1,66.9,364.3,66.5,364.6,66C364.6,66,364.6,66,364.6,66"/>
	<path class="st0" d="M794.3,20c-1.9,0.2-3.8,0.9-5.7-0.2C790.5,18.9,792.4,18.6,794.3,20L794.3,20z"/>
	<path class="st0" d="M271,67.5c1.9-0.1,3.7-0.2,5.7-0.3C276.3,68.5,273.5,68.8,271,67.5"/>
	<path class="st0" d="M363.1,70.9c-1.7-0.2-3.2-0.4-4.7-0.5c0-0.2,0-0.4,0-0.5c1.6-0.1,3.2-0.2,4.9-0.3
		C363.2,70.1,363.2,70.4,363.1,70.9"/>
	<path class="st0" d="M157.6,76.6c-0.8,0.6-1.4,1.1-2.3,1.9v-4.3C156.2,75.1,156.8,75.8,157.6,76.6"/>
	<path class="st0" d="M314.4,69.2c1.6-1.6,3.4-0.6,5.3-0.9C318.1,70.4,316.1,69,314.4,69.2"/>
	<path class="st0" d="M375.1,66.4c-1.2,1-2.7,1.1-4.8,0.4c0-0.1,0-0.3,0-0.4c1.6-0.2,3.2-0.3,4.8-0.5C375,66.1,375,66.2,375.1,66.4"
		/>
	<path class="st0" d="M308,68.5c1.6-1.3,3.4,0,5-0.3c0,0.2,0,0.4,0,0.6l-5,0.4C308,68.9,308,68.7,308,68.5"/>
	<path class="st0" d="M357.7,69.5c-1.4,1.1-2.5,1.2-4.8,0.5C353.5,69.1,354.8,68.9,357.7,69.5"/>
	<path class="st0" d="M343,89.2c2.1-0.3,4-0.5,5.9-0.7C347.8,89.9,344.9,90.3,343,89.2"/>
	<path class="st0" d="M407.2,66.6c-0.6,1.6-1.9,1.7-4.3,1c0-0.1,0-0.3-0.1-0.4C404.3,67,405.7,66.8,407.2,66.6"/>
	<path class="st0" d="M346.5,69.7c1.3-1,3.3-1.1,5,0H346.5z"/>
	<path class="st0" d="M408.1,67.1c1.4-0.2,2.8-0.4,4.4-0.6c-0.6,1.5-1.8,1.7-4.3,1.1C408.1,67.5,408.1,67.3,408.1,67.1"/>
	<path class="st0" d="M794.3,20c0.5,0.2,0.9,0.5,1.3,0.7c-0.6,0.4-1.2,1-1.9,1.2c-0.4,0.1-1-0.3-1.8-0.5
		C792.9,20.8,793.6,20.4,794.3,20C794.3,20,794.3,20,794.3,20"/>
	<path class="st0" d="M798.6,18.5c-1.5,1.1-3,0.5-4.5,0C795.6,17.8,797.1,17.4,798.6,18.5"/>
	<path class="st0" d="M790.6,15.8c0-1.4,0.7-1.9,2.4-1.7C793,15.6,792.7,15.8,790.6,15.8"/>
	<path class="st0" d="M796.3,15.9c-1.7,0.8-3.4,1.6-5.1,2.4c-0.1-0.2-0.2-0.4-0.2-0.5c2-0.2,2.9-2.8,5.2-2.4
		C796.1,15.6,796.2,15.7,796.3,15.9"/>
	<path class="st0" d="M798.3,12.8c-0.1,1.6-1.1,1.9-2.3,1.8C795.7,13.2,795.9,13,798.3,12.8"/>
	<path class="st0" d="M797.5,19.8c0.6-0.3,1.2-0.7,1.8-0.8c0.3-0.1,0.8,0.2,1.1,0.3c-0.2,0.3-0.3,0.8-0.6,0.9
		c-0.7,0.2-1.5,0.1-2.3,0.2C797.6,20.2,797.6,20,797.5,19.8"/>
	<path class="st0" d="M800.4,12.8c0.7-0.4,1.4-0.7,2.2-1.1c0.4,1.6-0.2,2-1.9,1.6C800.6,13.1,800.5,13,800.4,12.8"/>
	<path class="st0" d="M407.9,70.4c1.1-0.1,2.3-0.3,3.4-0.4c0.4,0,0.9,0.1,1.3,0.2c0,0.2,0,0.3,0,0.5c-1.4,0-2.8,0.1-4.2,0.1
		C408.2,70.9,408,70.6,407.9,70.4C407.9,70.4,407.9,70.4,407.9,70.4"/>
	<path class="st0" d="M805,19c-0.8,0.1-1.6,0.3-2.7,0.4c0.8-1.5,1-1.5,2.6-0.9C805,18.7,805,18.9,805,19"/>
	<path class="st0" d="M807.5,11.6c-0.4,1.2-1.2,1-2.1,0.7c-0.1-0.1-0.1-0.3-0.2-0.4c0.7-0.3,1.4-0.6,2.1-0.8
		C807.4,11.3,807.5,11.5,807.5,11.6"/>
	<path class="st0" d="M809.5,17.8c-0.5,0.2-1,0.5-1.6,0.6c0,0-0.3-0.6-0.3-0.6c0.5-0.3,1-0.6,1.5-0.8
		C809.3,17.3,809.4,17.5,809.5,17.8"/>
	<path class="st0" d="M800.5,17.2c0.8-0.1,1.6-0.1,2.4-0.2c0,0.2,0,0.4,0.1,0.6c-0.8,0.1-1.6,0.2-2.4,0.3L800.5,17.2z"/>
	<path class="st0" d="M560.2,65.3c1.4-0.2,2.8-0.3,4.1-0.5c0,0.2,0,0.3,0.1,0.5c-1.4,0.1-2.8,0.3-4.1,0.4
		C560.3,65.6,560.2,65.5,560.2,65.3"/>
	<path class="st0" d="M391.4,201.4c2.1-0.4,4.2-0.9,6.3-1.3c0,0.2,0.1,0.3,0.1,0.5c-2.1,0.5-4.1,1-6.2,1.5
		C391.6,201.9,391.5,201.7,391.4,201.4"/>
	<path class="st0" d="M363.4,77.8h4.5v0.5h-4.5C363.4,78.1,363.4,77.9,363.4,77.8"/>
	<path class="st0" d="M418.9,60.3c-1.2-0.1-2.4-0.1-3.6-0.2l0-0.7c1.2,0.1,2.4,0.1,3.6,0.2C418.9,59.9,418.9,60.1,418.9,60.3"/>
	<path class="st0" d="M400.3,146c2.5,0.3,4.9,0.6,7.2,0.8c1.5,0.2,2.8,0.7,3.6,2.1c0.4,0.7,1.1,1.1,1.5,1.8c0.3,0.7,0.4,1.5,0.6,2.2
		c-0.9,0.1-1.9,0.5-2.7,0.3c-1.1-0.3-2.1-1-3-1.7c-1.6-1.2-3.5-1.5-5.3-1.7c-1.4-0.1-1.8-0.7-1.8-2
		C400.3,147.2,400.3,146.6,400.3,146"/>
	<path class="st0" d="M391.2,184.1c0.9-0.9,1.8-1.8,2.7-2.6c0.3-0.2,0.8-0.3,1.2-0.2c1.2,0.2,2.5,0.6,3.7,0.8c2.4,0.2,4,1.3,4.7,3.8
		c-1.4,0.8-2.3,2.9-4.5,2.5c-0.8-0.2-1.7-0.4-2.3-0.9c-1.6-1.4-3-2.9-5.4-2.8C391.3,184.4,391.2,184.3,391.2,184.1"/>
	<path class="st0" d="M399.9,163.1c2.4,0.3,4.9,0.7,7.3,0.8c1.9,0.1,3.2,0.9,4.1,2.3c0.4,0.7,0.6,1.7,0.5,2.5c0,0.5-2.6,1-3.2,0.7
		c-0.5-0.3-1-0.6-1.5-0.9c-1.6-1.2-3.4-2-5.4-2.3C399.5,165.8,399.6,165.7,399.9,163.1"/>
	<path class="st0" d="M393,128.5c3.6,0.2,6.8,0.3,10,0.8c1.8,0.3,3.4,1.3,5.1,2.1c0.3,0.2,0.5,0.9,0.5,1.4c0,0.3-0.5,0.8-0.8,0.8
		c-0.8,0.1-1.8,0.3-2.5,0c-2.9-1.3-5.9-2.4-9.1-2.1C394.3,131.6,393.9,130.1,393,128.5"/>
	<path class="st0" d="M409.2,176.3c-0.7,0.8-1.4,1.7-2.1,2.4c-1.1,1.2-2.6,1.3-3.8,0.1c-0.1-0.1-0.2-0.2-0.3-0.3
		c-2.1-2.2-2.1-2.6-0.8-5.3c0.1-0.3,0.6-0.6,1-0.6C406.9,172.7,407.3,173,409.2,176.3"/>
	<path class="st0" d="M402.6,137.1c3.7-0.7,6.3,1.6,9.3,3c1,0.5,0.8,2.2-0.1,2.9c-1.5,1-2.9,1.1-4.3-0.2c-0.4-0.4-0.9-0.7-1.5-1
		C404,140.9,403,139.2,402.6,137.1"/>
	<path class="st0" d="M400.5,190c2.6,0,4.4-1.6,6.4-2.9c1.3-0.9,3.1-1.1,4.6-1.6c1-0.3,1.9-0.6,2.9-0.9c0.4-0.1,0.8,0.1,1.3,0.2
		c-0.2,0.4-0.3,0.9-0.6,1.1c-1.2,0.7-2.5,1.3-3.8,1.9c-1.1,0.5-2.1,1-3.2,1.5c-0.2,0.1-0.6,0.2-0.6,0.3c-0.4,2.3-2.4,1.6-3.8,2.2
		c-0.3,0.1-0.7,0.1-1,0.2C400.7,192.6,400.6,192.5,400.5,190"/>
	<path class="st0" d="M408.7,155.9c2.3-0.5,3.5,1.6,5.1,2.9c0.3,0.3,0,2.1-0.3,2.1c-1.2,0.4-2.6,0.6-3.9,0.4
		c-0.9-0.2-1.7-1.2-2.6-1.6c-1.7-0.7-1.4-1.9-1.1-3.1c0.1-0.3,0.6-0.6,0.9-0.7C407.4,155.9,407.9,155.9,408.7,155.9"/>
	<path class="st0" d="M377.7,197.5c1.7-2.2,4.1-1.5,6.5-1c1,0.2,2,0.6,3,0.7c1.3,0.1,1.9,0.9,2.4,2.2c-1.3,0.5-2.6,1-3.9,1.4
		c-1.1,0.3-2.1,0-3.1-0.7C380.9,199,379.2,198.3,377.7,197.5"/>
	<path class="st0" d="M408.4,192.2c0.3,1-0.2,1.5-1,1.7c-1.7,0.5-3.4,1-5,1.6c-0.8,0.3-1.5,0.9-2.2,1.4c-0.2,0.2-0.5,0.3-0.8,0.4
		c-1.7,0.4-3.4,0.7-5.2,1c-0.3,0.1-0.7-0.2-1-0.3c0.2-0.3,0.2-0.7,0.5-0.8c4.6-2.3,9-4.7,14.3-5.1
		C408.1,192.2,408.2,192.2,408.4,192.2"/>
	<path class="st0" d="M393,137c2-1.2,4-0.7,5.9-0.3c0.3,0.1,0.7,0.4,0.8,0.8c0.3,1,0.6,2,0.9,3.4c-2,0-3.9,0-5.8,0
		c-0.3,0-0.7-0.4-0.9-0.7C393.6,139.1,393.3,138.1,393,137"/>
	<path class="st0" d="M398.8,175.2c-1.8-0.2-3.5-0.5-5.2-0.7c-0.1,0-0.3,0-0.3-0.1c-0.1-1.1-0.2-2.2-0.1-3.2c0-0.3,0.6-0.8,0.9-0.9
		c1.8-0.4,3.5-0.2,5,0.8c0.3,0.2,0.6,0.7,0.5,1C399.5,173.2,399.1,174.2,398.8,175.2"/>
	<path class="st0" d="M396.8,193.4c-1.4,0.6-2.7,1.1-4,1.6c-1.1,0.5-2,0.4-2.6-0.8c-0.2-0.4-0.5-0.7-0.8-1
		C391.3,190,395.4,189.8,396.8,193.4"/>
	<path class="st0" d="M401.5,158.2c-1.6,0-3.2,0-4.9,0c-0.2,0-0.6-0.5-0.6-0.8c-0.1-0.8-0.1-1.6-0.2-2.4
		C399.8,153.7,401.7,154.7,401.5,158.2"/>
	<path class="st0" d="M389.1,189.3c-0.1,0.2-0.1,0.2-0.1,0.2c-1.6,2.2-1.6,2.2-4.2,1.6c-1.2-0.3-2.4-0.4-3.6-0.7
		C383.5,187.4,385.4,187.2,389.1,189.3"/>
	<path class="st0" d="M384.3,123c2.3-0.3,4.2-0.6,6.1-0.7c0.3,0,0.8,0.3,1,0.5c0.5,0.7,0.9,1.5,1.6,2.7c-2.3,0-4.2,0.2-6.1-0.1
		C386.1,125.3,385.4,124,384.3,123"/>
</g>
</svg>
